<svg width="24" height="24" viewBox="0 0 22 22" fill="none" xmlns="http://www.w3.org/2000/svg">
<path d="M2.52832 18.0684H4.27832M4.27832 18.0684H13.0283M4.27832 18.0684V5.99353C4.27832 5.01344 4.27832 4.52303 4.46906 4.14868C4.63684 3.8194 4.90436 3.55188 5.23364 3.3841C5.60799 3.19336 6.0984 3.19336 7.07849 3.19336H10.2285C11.2086 3.19336 11.6979 3.19336 12.0723 3.3841C12.4016 3.55188 12.67 3.8194 12.8378 4.14868C13.0283 4.52266 13.0283 5.01248 13.0283 5.99066V11.0684M13.0283 18.0684H18.2783M13.0283 18.0684V11.0684M18.2783 18.0684H20.0283M18.2783 18.0684V11.0684C18.2783 10.253 18.2782 9.84546 18.145 9.52386C17.9674 9.09507 17.627 8.75418 17.1982 8.57657C16.8766 8.44336 16.4685 8.44336 15.6531 8.44336C14.8377 8.44336 14.43 8.44336 14.1084 8.57657C13.6796 8.75418 13.3391 9.09507 13.1615 9.52386C13.0283 9.84546 13.0283 10.253 13.0283 11.0684M6.90332 9.31836H10.4033M6.90332 6.69336H10.4033" stroke="#13A89E" stroke-width="1.3" stroke-linecap="round" stroke-linejoin="round"/>
</svg>
