<svg width="16" height="13" viewBox="0 0 16 13" fill="none" xmlns="http://www.w3.org/2000/svg">
    <path d="M1.33331 11.8337H2.66665M2.66665 11.8337H7.99998M2.66665 11.8337V3.30046C2.66665 2.55372 2.66665 2.18007 2.81197 1.89486C2.9398 1.64397 3.14363 1.44015 3.39451 1.31232C3.67973 1.16699 4.05337 1.16699 4.80011 1.16699H5.86678C6.61351 1.16699 6.98669 1.16699 7.2719 1.31232C7.52278 1.44015 7.72697 1.64397 7.8548 1.89486C7.99998 2.17979 7.99998 2.55299 7.99998 3.29827V5.33105M7.99998 11.8337H13.3333M7.99998 11.8337V5.33105M13.3333 11.8337H14.6666M13.3333 11.8337V8.0791C13.3333 7.72897 13.3333 7.55362 13.2913 7.3903C13.2541 7.24552 13.1926 7.10822 13.1098 6.98378C13.0163 6.84337 12.8863 6.7262 12.6258 6.49212L11.0924 5.11458C10.5884 4.66179 10.3363 4.43549 10.0514 4.34961C9.80045 4.27396 9.53267 4.27396 9.28171 4.34961C8.99684 4.43548 8.74482 4.66189 8.24093 5.11458L7.99998 5.33105" stroke="#13A89E" stroke-width="1.5" stroke-linecap="round" stroke-linejoin="round"/>
</svg>
