<svg width="57" height="68" viewBox="0 0 57 68" fill="none" xmlns="http://www.w3.org/2000/svg">
<g id="Cart">
<g id="cart">
<path id="Vector" d="M48.163 52.7788C48.1239 51.9525 47.8901 51.1471 47.4809 50.4281C47.0716 49.7092 46.4984 49.097 45.8079 48.6414C45.1219 48.2383 44.503 48.2206 44.0645 48.5071L42.4556 49.4123L45.8327 55.2365L47.4275 54.3312C47.8731 54.0872 48.156 53.5532 48.163 52.7788Z" fill="#37474F"/>
<path id="Vector_2" d="M44.1354 49.5897C44.8249 50.0463 45.3974 50.6587 45.8065 51.3774C46.2156 52.0962 46.4499 52.9011 46.4905 53.7271C46.4905 55.2477 45.4084 55.8488 44.1 55.0885C43.4105 54.6319 42.838 54.0195 42.4289 53.3008C42.0198 52.5821 41.7854 51.7772 41.7449 50.9511C41.7555 49.4306 42.827 48.8223 44.1354 49.5897Z" fill="#455A64"/>
<path id="Vector_3" d="M43.3149 51.8693C43.3149 51.2752 43.6686 51.0029 44.1247 51.2646C44.3695 51.4415 44.5692 51.6736 44.7074 51.9421C44.8457 52.2106 44.9186 52.5079 44.9204 52.8099C44.9204 53.404 44.5668 53.6728 44.1106 53.4146C43.8668 53.2368 43.6679 53.0044 43.5298 52.7362C43.3917 52.4679 43.3181 52.171 43.3149 51.8693Z" fill="#263238"/>
<path id="Vector_4" opacity="0.15" d="M46.4903 53.7268C46.4823 53.1807 46.372 52.6409 46.165 52.1355L42.0806 49.7627C41.8501 50.1151 41.734 50.53 41.7482 50.9509C41.7482 50.9685 41.7482 50.9862 41.7482 51.0074L46.4868 53.7586C46.4868 53.7586 46.4903 53.7374 46.4903 53.7268Z" fill="black"/>
<path id="Vector_5" d="M31.2316 65.7174C30.3675 65.783 29.501 65.6272 28.7138 65.2647L6.43564 52.4247C5.08834 51.7458 3.57484 49.9847 3.47936 48.3156L2.79688 32.4345L4.03809 32.3637L4.72411 48.2484C4.78777 49.38 5.9724 50.8016 6.99083 51.3108L29.2867 64.1543C29.8859 64.4044 30.534 64.5149 31.1822 64.4775C31.8304 64.4401 32.4615 64.2559 33.028 63.9386L47.8801 55.3739C48.2338 55.1405 48.4424 54.8612 48.4283 54.6242C48.4141 54.3873 48.1913 54.1539 47.813 53.963L23.947 40.108C22.6032 39.4326 21.0968 37.6681 21.0013 35.999L20.6689 27.1902L21.9101 27.123L22.2425 35.9282C22.3062 37.0669 23.4908 38.4849 24.5057 38.9941L48.3717 52.8526C49.1673 53.2522 49.627 53.8569 49.6695 54.5535C49.7119 55.2501 49.3158 55.9256 48.5626 56.4136L33.7105 64.9783C32.9605 65.4314 32.1073 65.6858 31.2316 65.7174Z" fill="#455A64"/>
<path id="Vector_6" d="M27.2287 65.3603C27.1895 64.534 26.9558 63.7286 26.5466 63.0096C26.1373 62.2907 25.5641 61.6785 24.8736 61.223C24.1875 60.8198 23.5687 60.7986 23.1338 61.0886L21.5212 61.9939L24.8983 67.818L26.4932 66.9127C26.9317 66.6687 27.2287 66.1348 27.2287 65.3603Z" fill="#37474F"/>
<path id="Vector_7" d="M23.1938 62.1703C23.8848 62.6262 24.4583 63.2389 24.8676 63.9585C25.2769 64.6781 25.5103 65.4842 25.549 66.3112C25.549 67.8282 24.4704 68.4329 23.1585 67.6691C22.469 67.2127 21.8968 66.6003 21.4882 65.8815C21.0796 65.1626 20.8462 64.3576 20.8069 63.5317C20.8175 62.0147 21.8854 61.3959 23.1938 62.1703Z" fill="#455A64"/>
<path id="Vector_8" d="M22.3733 64.4513C22.3733 63.8572 22.7269 63.5849 23.1831 63.8466C23.4283 64.0231 23.6282 64.2551 23.7665 64.5237C23.9048 64.7923 23.9775 65.0898 23.9787 65.392C23.9787 65.9825 23.6251 66.2548 23.1725 65.9931C22.9277 65.8168 22.7278 65.5854 22.589 65.3175C22.4502 65.0497 22.3763 64.753 22.3733 64.4513Z" fill="#263238"/>
<path id="Vector_9" d="M10.757 55.8655C10.7196 55.0395 10.4877 54.2339 10.0804 53.5144C9.67297 52.7949 9.10153 52.1816 8.41251 51.7246C7.72295 51.3214 7.10765 51.3002 6.66916 51.5866L5.05664 52.4884L8.42312 58.3196L10.0215 57.4143C10.4671 57.1739 10.75 56.6399 10.757 55.8655Z" fill="#37474F"/>
<path id="Vector_10" d="M6.73644 52.6722C7.42385 53.1279 7.99451 53.7388 8.40238 54.4557C8.81025 55.1725 9.04391 55.9752 9.08449 56.799C9.08449 58.316 7.99887 58.9207 6.69046 58.1533C6.00144 57.6962 5.43 57.083 5.02262 56.3635C4.61523 55.6439 4.38339 54.8384 4.34595 54.0124C4.35656 52.506 5.42803 51.9013 6.73644 52.6722Z" fill="#455A64"/>
<path id="Vector_11" d="M5.91211 54.9469C5.91211 54.3563 6.26573 54.084 6.7219 54.3457C6.9663 54.523 7.16563 54.7552 7.30383 55.0236C7.44203 55.292 7.51524 55.5891 7.51755 55.891C7.51755 56.4851 7.16393 56.7539 6.70422 56.4957C6.46082 56.317 6.26247 56.0839 6.12496 55.815C5.98746 55.5461 5.91457 55.2489 5.91211 54.9469Z" fill="#263238"/>
<path id="Vector_12" d="M0.1341 13.1906C-0.0769125 12.3817 -0.0381779 11.5279 0.245217 10.7415C0.528612 9.95503 1.04339 9.27278 1.72186 8.78444L16.5422 0.407134C17.8895 -0.476922 19.3711 0.138379 19.8379 1.67664L20.867 5.01129L19.8485 5.60538L18.7417 2.23536C18.6966 2.05516 18.6075 1.88898 18.4823 1.75175C18.3571 1.61453 18.1998 1.51056 18.0245 1.4492C17.8492 1.38783 17.6614 1.371 17.4779 1.40021C17.2945 1.42941 17.1212 1.50374 16.9736 1.61652L2.54227 9.76751C2.10997 10.0844 1.78098 10.5221 1.59664 11.0254C1.41229 11.5287 1.38081 12.0753 1.50615 12.5965L2.37606 15.7968L1.16314 16.504L0.1341 13.1906Z" fill="#455A64"/>
<path id="Vector_13" d="M23.0486 29.2598L3.13965 40.756L32.2357 57.5531L52.1446 46.0568L23.0486 29.2598Z" fill="#BDFFF9"/>
<path id="Vector_14" opacity="0.5" d="M23.0486 29.2598L3.13965 40.756L32.2357 57.5531L52.1446 46.0568L23.0486 29.2598Z" fill="black"/>
<path id="Vector_15" d="M1.16333 16.525L20.8672 5.01465L23.049 29.259L3.14008 40.7552L1.16333 16.525Z" fill="#BDFFF9"/>
<path id="Vector_16" opacity="0.35" d="M1.16333 16.525L20.8672 5.01465L23.049 29.259L3.14008 40.7552L1.16333 16.525Z" fill="black"/>
<path id="Vector_17" d="M20.8633 5.01465L23.0451 29.259L52.1412 46.056L56.7382 25.7192L20.8633 5.01465ZM31.037 28.3254C30.6168 28.4556 30.1622 28.4151 29.7717 28.2126C29.3812 28.01 29.0862 27.6618 28.9506 27.2433L24.1414 14.764C24.0356 14.5673 23.973 14.3502 23.9577 14.1274C23.9425 13.9045 23.975 13.681 24.0531 13.4717C24.1311 13.2624 24.253 13.0722 24.4104 12.9137C24.5678 12.7553 24.7573 12.6323 24.966 12.5529C25.1748 12.4735 25.3981 12.4395 25.6211 12.4533C25.844 12.4671 26.0615 12.5283 26.2589 12.6328C26.4563 12.7373 26.6291 12.8828 26.7658 13.0594C26.9025 13.2361 27 13.4399 27.0517 13.6572L31.8609 26.1365C32.038 26.5361 32.0513 26.9893 31.8979 27.3986C31.7445 27.8079 31.4367 28.1406 31.0405 28.3254H31.037ZM40.1215 32.5972C39.7018 32.7295 39.2468 32.6903 38.8559 32.4882C38.465 32.2861 38.1699 31.9376 38.0352 31.5186L33.2401 19.0393C33.1345 18.8431 33.0719 18.6267 33.0564 18.4044C33.0409 18.1822 33.0729 17.9592 33.1502 17.7503C33.2276 17.5413 33.3485 17.3512 33.505 17.1926C33.6614 17.034 33.8499 16.9106 34.0577 16.8304C34.2656 16.7502 34.4882 16.7152 34.7106 16.7277C34.933 16.7402 35.1503 16.7999 35.3479 16.9028C35.5455 17.0057 35.7189 17.1494 35.8567 17.3245C35.9944 17.4996 36.0933 17.702 36.1468 17.9183L40.9561 30.3976C41.1368 30.7996 41.1507 31.2568 40.995 31.6691C40.8392 32.0814 40.5264 32.4151 40.1251 32.5972H40.1215ZM49.2061 36.8725C48.7887 37.0056 48.3357 36.9689 47.9451 36.7703C47.5546 36.5717 47.2581 36.2273 47.1197 35.8116L42.314 23.3323C42.2111 23.1367 42.1508 22.9216 42.137 22.701C42.1232 22.4804 42.1562 22.2595 42.2338 22.0526C42.3115 21.8457 42.432 21.6576 42.5875 21.5006C42.7431 21.3436 42.93 21.2212 43.1362 21.1416C43.3423 21.062 43.563 21.027 43.7837 21.0387C44.0044 21.0504 44.2201 21.1087 44.4166 21.2098C44.6131 21.3108 44.7861 21.4522 44.9241 21.6249C45.0621 21.7975 45.162 21.9973 45.2172 22.2113L50.0265 34.6906C50.2026 35.0889 50.2157 35.5403 50.063 35.9481C49.9103 36.356 49.604 36.6878 49.2096 36.8725H49.2061Z" fill="#BDFFF9"/>
<path id="Vector_18" opacity="0.23" d="M20.8633 5.01465L23.0451 29.259L52.1412 46.056L56.7382 25.7192L20.8633 5.01465ZM31.037 28.3254C30.6168 28.4556 30.1622 28.4151 29.7717 28.2126C29.3812 28.01 29.0862 27.6618 28.9506 27.2433L24.1414 14.764C24.0356 14.5673 23.973 14.3502 23.9577 14.1274C23.9425 13.9045 23.975 13.681 24.0531 13.4717C24.1311 13.2624 24.253 13.0722 24.4104 12.9137C24.5678 12.7553 24.7573 12.6323 24.966 12.5529C25.1748 12.4735 25.3981 12.4395 25.6211 12.4533C25.844 12.4671 26.0615 12.5283 26.2589 12.6328C26.4563 12.7373 26.6291 12.8828 26.7658 13.0594C26.9025 13.2361 27 13.4399 27.0517 13.6572L31.8609 26.1365C32.038 26.5361 32.0513 26.9893 31.8979 27.3986C31.7445 27.8079 31.4367 28.1406 31.0405 28.3254H31.037ZM40.1215 32.5972C39.7018 32.7295 39.2468 32.6903 38.8559 32.4882C38.465 32.2861 38.1699 31.9376 38.0352 31.5186L33.2401 19.0393C33.1345 18.8431 33.0719 18.6267 33.0564 18.4044C33.0409 18.1822 33.0729 17.9592 33.1502 17.7503C33.2276 17.5413 33.3485 17.3512 33.505 17.1926C33.6614 17.034 33.8499 16.9106 34.0577 16.8304C34.2656 16.7502 34.4882 16.7152 34.7106 16.7277C34.933 16.7402 35.1503 16.7999 35.3479 16.9028C35.5455 17.0057 35.7189 17.1494 35.8567 17.3245C35.9944 17.4996 36.0933 17.702 36.1468 17.9183L40.9561 30.3976C41.1368 30.7996 41.1507 31.2568 40.995 31.6691C40.8392 32.0814 40.5264 32.4151 40.1251 32.5972H40.1215ZM49.2061 36.8725C48.7887 37.0056 48.3357 36.9689 47.9451 36.7703C47.5546 36.5717 47.2581 36.2273 47.1197 35.8116L42.314 23.3323C42.2111 23.1367 42.1508 22.9216 42.137 22.701C42.1232 22.4804 42.1562 22.2595 42.2338 22.0526C42.3115 21.8457 42.432 21.6576 42.5875 21.5006C42.7431 21.3436 42.93 21.2212 43.1362 21.1416C43.3423 21.062 43.563 21.027 43.7837 21.0387C44.0044 21.0504 44.2201 21.1087 44.4166 21.2098C44.6131 21.3108 44.7861 21.4522 44.9241 21.6249C45.0621 21.7975 45.162 21.9973 45.2172 22.2113L50.0265 34.6906C50.2026 35.0889 50.2157 35.5403 50.063 35.9481C49.9103 36.356 49.604 36.6878 49.2096 36.8725H49.2061Z" fill="black"/>
<path id="Vector_19" d="M1.16333 16.5254L3.14008 40.7556L32.2361 57.5526L36.8332 37.2194L1.16333 16.5254ZM12.649 40.3772C12.2288 40.5074 11.7742 40.4669 11.3837 40.2644C10.9932 40.0618 10.6982 39.7136 10.5626 39.2951L5.75688 26.8158C5.65333 26.6201 5.59245 26.4046 5.57826 26.1836C5.56408 25.9626 5.5969 25.7411 5.67457 25.5337C5.75225 25.3264 5.87301 25.1378 6.02888 24.9805C6.18476 24.8232 6.37221 24.7008 6.57887 24.6212C6.78554 24.5417 7.00672 24.5069 7.22783 24.5191C7.44894 24.5312 7.66495 24.5902 7.86162 24.692C8.05829 24.7937 8.23114 24.9361 8.36878 25.1095C8.50642 25.283 8.60572 25.4837 8.66012 25.6983L13.4694 38.1741C13.6509 38.5753 13.6665 39.032 13.5128 39.4446C13.3592 39.8572 13.0487 40.1924 12.649 40.3772ZM21.7335 44.649C21.3138 44.7813 20.8588 44.7421 20.4679 44.54C20.077 44.3379 19.7819 43.9893 19.6472 43.5704L14.852 31.0911C14.7465 30.8949 14.6839 30.6785 14.6684 30.4562C14.6529 30.234 14.6849 30.011 14.7622 29.802C14.8396 29.5931 14.9605 29.403 15.117 29.2444C15.2734 29.0858 15.4619 28.9623 15.6697 28.8822C15.8776 28.802 16.1001 28.767 16.3226 28.7795C16.545 28.792 16.7623 28.8516 16.9599 28.9545C17.1575 29.0574 17.3309 29.2012 17.4687 29.3763C17.6064 29.5514 17.7053 29.7538 17.7588 29.9701L22.5645 42.4494C22.7452 42.8514 22.7592 43.3086 22.6034 43.7209C22.4477 44.1331 22.1349 44.4669 21.7335 44.649ZM30.8181 48.9242C30.3988 49.0565 29.9443 49.0172 29.5539 48.8151C29.1636 48.6129 28.8692 48.2644 28.7352 47.8457L23.926 35.3664C23.8204 35.1702 23.7578 34.9538 23.7423 34.7315C23.7268 34.5093 23.7588 34.2863 23.8362 34.0773C23.9135 33.8684 24.0344 33.6783 24.1909 33.5197C24.3474 33.3611 24.5358 33.2376 24.7437 33.1575C24.9515 33.0773 25.1741 33.0423 25.3965 33.0548C25.619 33.0673 25.8362 33.1269 26.0338 33.2298C26.2314 33.3327 26.4048 33.4765 26.5426 33.6516C26.6803 33.8267 26.7793 34.0291 26.8328 34.2454L31.6385 46.7247C31.8198 47.1254 31.8354 47.5815 31.6817 47.9936C31.528 48.4057 31.2175 48.7402 30.8181 48.9242Z" fill="#BDFFF9"/>
<g id="Group" opacity="0.15">
<path id="Vector_20" d="M1.16309 16.5254L3.13984 40.7556L32.2359 57.5526L36.8329 37.2194L1.16309 16.5254ZM12.6487 40.3772C12.2285 40.5074 11.774 40.4669 11.3835 40.2644C10.993 40.0618 10.698 39.7136 10.5624 39.2951L5.75664 26.8158C5.65308 26.6201 5.59221 26.4046 5.57802 26.1836C5.56383 25.9626 5.59666 25.7411 5.67433 25.5337C5.752 25.3264 5.87276 25.1378 6.02864 24.9805C6.18451 24.8232 6.37197 24.7008 6.57863 24.6212C6.7853 24.5417 7.00647 24.5069 7.22758 24.5191C7.44869 24.5312 7.66471 24.5902 7.86137 24.692C8.05804 24.7937 8.2309 24.9361 8.36853 25.1095C8.50617 25.283 8.60547 25.4837 8.65988 25.6983L13.4691 38.1741C13.6506 38.5753 13.6663 39.032 13.5126 39.4446C13.3589 39.8572 13.0484 40.1924 12.6487 40.3772ZM21.7333 44.649C21.3136 44.7813 20.8586 44.7421 20.4676 44.54C20.0767 44.3379 19.7816 43.9893 19.6469 43.5704L14.8518 31.0911C14.7462 30.8949 14.6836 30.6785 14.6681 30.4562C14.6527 30.234 14.6846 30.011 14.762 29.802C14.8393 29.5931 14.9603 29.403 15.1167 29.2444C15.2732 29.0858 15.4616 28.9623 15.6695 28.8822C15.8774 28.802 16.0999 28.767 16.3223 28.7795C16.5448 28.792 16.762 28.8516 16.9596 28.9545C17.1572 29.0574 17.3307 29.2012 17.4684 29.3763C17.6062 29.5514 17.7051 29.7538 17.7586 29.9701L22.5643 42.4494C22.745 42.8514 22.7589 43.3086 22.6032 43.7209C22.4474 44.1331 22.1346 44.4669 21.7333 44.649ZM30.8178 48.9242C30.3986 49.0565 29.9441 49.0172 29.5537 48.8151C29.1633 48.6129 28.869 48.2644 28.735 47.8457L23.9257 35.3664C23.8202 35.1702 23.7576 34.9538 23.7421 34.7315C23.7266 34.5093 23.7586 34.2863 23.8359 34.0773C23.9133 33.8684 24.0342 33.6783 24.1907 33.5197C24.3471 33.3611 24.5356 33.2376 24.7434 33.1575C24.9513 33.0773 25.1738 33.0423 25.3963 33.0548C25.6187 33.0673 25.836 33.1269 26.0336 33.2298C26.2312 33.3327 26.4046 33.4765 26.5424 33.6516C26.6801 33.8267 26.779 34.0291 26.8325 34.2454L31.6382 46.7247C31.8196 47.1254 31.8351 47.5815 31.6814 47.9936C31.5277 48.4057 31.2173 48.7402 30.8178 48.9242Z" fill="black"/>
</g>
<path id="Vector_21" d="M36.8294 37.2189L56.7383 25.7227L52.1448 46.0595L32.2358 57.5522L36.8294 37.2189Z" fill="#BDFFF9"/>
<path id="Vector_22" opacity="0.4" d="M36.8294 37.2189L56.7383 25.7227L52.1448 46.0595L32.2358 57.5522L36.8294 37.2189Z" fill="black"/>
</g>
</g>
</svg>
