<svg width="14" height="14" viewBox="0 0 14 14" fill="none" xmlns="http://www.w3.org/2000/svg">
    <path d="M1.4 4.2H12.6V13.3C12.6 13.4857 12.5263 13.6637 12.395 13.795C12.2637 13.9263 12.0857 14 11.9 14H2.1C1.91435 14 1.7363 13.9263 1.60503 13.795C1.47375 13.6637 1.4 13.4857 1.4 13.3V4.2ZM2.8 5.6V12.6H11.2V5.6H2.8ZM4.9 7H6.3V11.2H4.9V7ZM7.7 7H9.1V11.2H7.7V7ZM3.5 2.1V0.7C3.5 0.514348 3.57375 0.336301 3.70503 0.205025C3.8363 0.0737498 4.01435 0 4.2 0H9.8C9.98565 0 10.1637 0.0737498 10.295 0.205025C10.4263 0.336301 10.5 0.514348 10.5 0.7V2.1H14V3.5H0V2.1H3.5ZM4.9 1.4V2.1H9.1V1.4H4.9Z" fill="#F21E1E"/>
</svg>
