<svg width="72" height="69" viewBox="0 0 72 69" fill="none" xmlns="http://www.w3.org/2000/svg">
<g id="Character">
<path id="Vector" d="M23.6363 60.1516H0L1.32971 58.8389H24.4128L23.6363 60.1516Z" fill="#E0E0E0"/>
<path id="Vector_2" d="M43.4897 32.4537C43.6383 32.3815 43.7797 32.2953 43.912 32.1964C44.1667 32.0266 44.5137 31.7888 44.8825 31.5195L45.0742 31.3836L45.0039 31.3666C45.2077 31.7233 45.3897 32.0363 45.5256 32.2571C45.5934 32.3814 45.6747 32.4978 45.7682 32.6041C45.7245 32.4713 45.6651 32.3442 45.5911 32.2256C45.4722 31.995 45.2975 31.6748 45.1058 31.3181L45.0767 31.2695L45.033 31.3011L44.8389 31.437C44.4603 31.7063 44.1109 31.9538 43.8683 32.1382C43.7311 32.2294 43.6042 32.3351 43.4897 32.4537Z" fill="#263238"/>
<path id="Vector_3" d="M71.4445 59.2669C71.7514 54.8834 68.4466 51.0812 64.0631 50.7743C59.6796 50.4675 55.8773 53.7723 55.5705 58.1558C55.2636 62.5393 58.5684 66.3415 62.9519 66.6484C67.3354 66.9552 71.1377 63.6504 71.4445 59.2669Z" fill="#263238"/>
<path id="Vector_4" d="M55.2266 58.5645V58.5863C55.2174 60.6776 56.034 62.688 57.4988 64.1806C58.9637 65.6733 60.9584 66.5274 63.0495 66.5575C65.1406 66.5875 67.1591 65.791 68.6662 64.3411C70.1734 62.8912 71.0474 60.9051 71.0982 58.8144C71.0982 58.8144 71.0982 58.7998 71.0982 58.795L55.2266 58.5645Z" fill="#263238"/>
<path id="Vector_5" d="M57.5901 58.6205C57.5724 59.7249 57.8828 60.8098 58.4821 61.7376C59.0814 62.6655 59.9425 63.3947 60.9565 63.8329C61.9704 64.271 63.0916 64.3984 64.178 64.199C65.2644 63.9995 66.2672 63.4822 67.0594 62.7124C67.8516 61.9427 68.3976 60.9552 68.6282 59.8749C68.8588 58.7947 68.7637 57.6703 68.3548 56.6442C67.946 55.618 67.2418 54.7363 66.3316 54.1106C65.4213 53.4849 64.3458 53.1434 63.2413 53.1294C61.7645 53.1105 60.3404 53.6779 59.2811 54.7072C58.2218 55.7365 57.6137 57.1437 57.5901 58.6205Z" fill="#FAFAFA"/>
<path id="Vector_6" d="M63.2411 53.1294C61.7643 53.1105 60.3401 53.6779 59.2809 54.7072C58.2216 55.7365 57.6135 57.1437 57.5898 58.6205L68.7322 58.7806C68.7511 57.3038 68.1837 55.8797 67.1544 54.8204C66.1251 53.7611 64.7179 53.153 63.2411 53.1294Z" fill="#E0E0E0"/>
<path id="Vector_7" d="M59.7667 58.6521C59.7567 59.3241 59.9462 59.9839 60.3113 60.5482C60.6764 61.1124 61.2007 61.5557 61.8177 61.8219C62.4348 62.0881 63.117 62.1653 63.778 62.0438C64.4389 61.9222 65.049 61.6073 65.5309 61.1389C66.0129 60.6706 66.3451 60.0697 66.4855 59.4125C66.6259 58.7553 66.5683 58.0712 66.3198 57.4468C66.0713 56.8223 65.6432 56.2856 65.0896 55.9046C64.5361 55.5235 63.8819 55.3152 63.2099 55.306C62.3098 55.2937 61.4415 55.6392 60.7959 56.2666C60.1503 56.894 59.7802 57.752 59.7667 58.6521Z" fill="#263238"/>
<path id="Vector_8" d="M59.3953 47.0625C59.3953 47.0625 67.5216 44.6045 70.8847 53.4321L53.8799 58.6999L59.3953 47.0625Z" fill="#455A64"/>
<path id="Vector_9" d="M6.25545 58.5865C6.23305 60.1562 6.67662 61.6972 7.53008 63.0148C8.38353 64.3324 9.60853 65.3673 11.0502 65.9886C12.4918 66.6099 14.0853 66.7898 15.6292 66.5055C17.173 66.2212 18.5979 65.4854 19.7236 64.3913C20.8493 63.2971 21.6253 61.8938 21.9534 60.3586C22.2815 58.8234 22.147 57.2255 21.5669 55.7667C20.9868 54.308 19.9871 53.0541 18.6943 52.1635C17.4016 51.273 15.8738 50.7858 14.3041 50.7635C13.2619 50.7484 12.2269 50.9389 11.2583 51.3239C10.2897 51.7089 9.40643 52.281 8.65899 53.0075C7.91155 53.734 7.31458 54.6006 6.90217 55.5579C6.48976 56.5151 6.27 57.5443 6.25545 58.5865Z" fill="#263238"/>
<path id="Vector_10" d="M6.25545 58.5645V58.5863C6.24623 60.6776 7.06278 62.688 8.52762 64.1806C9.99247 65.6733 11.9872 66.5274 14.0783 66.5575C16.1695 66.5875 18.1879 65.791 19.6951 64.3411C21.2022 62.8912 22.0762 60.9051 22.1271 58.8144C22.1271 58.8144 22.1271 58.7998 22.1271 58.795L6.25545 58.5645Z" fill="#263238"/>
<path id="Vector_11" d="M8.61888 58.6204C8.60118 59.7251 8.91179 60.8103 9.51137 61.7383C10.111 62.6664 10.9725 63.3956 11.9869 63.8336C13.0013 64.2715 14.1228 64.3985 15.2095 64.1985C16.2961 63.9985 17.2989 63.4804 18.0908 62.7099C18.8827 61.9394 19.4282 60.9512 19.6579 59.8705C19.8877 58.7898 19.7916 57.6652 19.3816 56.6391C18.9717 55.6131 18.2664 54.7319 17.3551 54.107C16.4439 53.4822 15.3677 53.1419 14.2629 53.1293C12.7873 53.1124 11.365 53.6807 10.3073 54.7097C9.24961 55.7388 8.64252 57.1449 8.61888 58.6204Z" fill="#FAFAFA"/>
<path id="Vector_12" d="M14.2628 53.1294C12.786 53.1105 11.3619 53.6779 10.3026 54.7072C9.2433 55.7365 8.63521 57.1437 8.61157 58.6205L19.754 58.7806C19.7728 57.3038 19.2054 55.8797 18.1761 54.8204C17.1468 53.7611 15.7396 53.153 14.2628 53.1294Z" fill="#E0E0E0"/>
<path id="Vector_13" d="M10.7955 58.6521C10.7855 59.3241 10.9751 59.9839 11.3401 60.5482C11.7052 61.1124 12.2295 61.5557 12.8466 61.8219C13.4636 62.0881 14.1458 62.1653 14.8068 62.0438C15.4677 61.9222 16.0778 61.6073 16.5598 61.1389C17.0417 60.6706 17.3739 60.0697 17.5143 59.4125C17.6548 58.7553 17.5971 58.0712 17.3486 57.4468C17.1001 56.8223 16.672 56.2856 16.1184 55.9046C15.5649 55.5235 14.9107 55.3152 14.2387 55.306C13.3386 55.2937 12.4703 55.6392 11.8247 56.2666C11.1791 56.894 10.809 57.752 10.7955 58.6521Z" fill="#263238"/>
<path id="Vector_14" d="M25.4805 55.5146C25.4247 55.5364 21.2997 54.8691 21.2997 54.8691C21.0764 55.1612 20.7919 55.4008 20.4662 55.5714C20.1406 55.742 19.7816 55.8394 19.4143 55.8567C17.6309 55.9416 15.8838 56.0217 14.3721 56.0994C13.6979 56.1303 13.0633 56.4264 12.6065 56.9231C12.1497 57.4199 11.9078 58.0771 11.9335 58.7515C11.961 59.3941 12.2289 60.003 12.6842 60.4574C13.1394 60.9118 13.7488 61.1785 14.3915 61.2047L23.1802 61.5492C24.6361 61.6075 26.5482 60.7291 27.4508 59.6081L25.4805 55.5146Z" fill="#455A64"/>
<path id="Vector_15" d="M3.8874 52.0006C3.8874 52.0006 3.50887 44.2674 10.7786 42.6538V41.6638H36.2421V44.0272C36.2421 44.0272 32.5053 48.5283 33.7258 52.2651C34.9463 56.0019 35.3273 56.3901 35.3273 56.3901H49.8207C50.9633 54.7816 51.6003 52.8689 51.6502 50.8965C51.7279 47.6184 50.3642 42.0084 49.3475 38.4244C48.423 35.1633 47.8382 32.4383 47.8382 32.4383L52.1841 30.9824C52.1841 30.9824 60.2303 41.5012 60.5578 42.0933C60.8854 42.6853 62.0137 44.0636 61.742 47.087C61.4702 50.1104 54.249 59.4426 52.3442 60.4957C50.4394 61.5488 48.719 61.6143 47.0205 61.8788C45.5355 62.1069 34.5654 61.954 31.6949 61.9103C30.6971 61.9049 29.7188 61.6335 28.8607 61.1242C28.0018 60.6049 27.3563 59.7435 26.6454 58.3289L25.1337 55.371L3.8874 52.0006Z" fill="#455A64"/>
<path id="Vector_16" d="M5.83573 51.4717L2.62792 56.4872C2.53603 56.6274 2.49163 56.7934 2.5013 56.9607C2.51097 57.128 2.57419 57.2878 2.68162 57.4164C2.78905 57.5451 2.93499 57.6358 3.09791 57.6751C3.26083 57.7145 3.43208 57.7004 3.58638 57.6349C3.98542 57.4587 4.34952 57.2121 4.66132 56.907C6.12934 55.5093 8.74508 51.8332 8.74508 51.8332L5.83573 51.4717Z" fill="#455A64"/>
<path id="Vector_17" d="M28.8362 52.3679C28.8397 52.3432 28.8454 52.3188 28.8531 52.2951C28.8693 52.2449 28.8912 52.1746 28.9187 52.084C28.9958 51.8129 29.0518 51.5363 29.0861 51.2566C29.1978 50.2203 29.0303 49.1731 28.6008 48.2235C28.3091 47.5694 27.9096 46.969 27.4191 46.4473C26.8544 45.8523 26.1993 45.3503 25.4779 44.9598C24.6782 44.528 23.8224 44.2096 22.935 44.0135C21.9783 43.8068 21.0019 43.7058 20.0232 43.7126C19.049 43.7202 18.0763 43.7915 17.1114 43.9262C16.1724 44.0548 15.2697 44.2101 14.4204 44.4115C12.9108 44.731 11.4558 45.2688 10.1013 46.0081C9.19207 46.5132 8.36085 47.1474 7.63357 47.891C7.37636 48.1555 7.19438 48.3763 7.07063 48.5268L6.93232 48.699C6.91788 48.7191 6.90163 48.7378 6.88379 48.7549C7.09952 48.437 7.34313 48.139 7.61173 47.8643C8.33222 47.1058 9.16241 46.4596 10.0746 45.9474C11.4306 45.1932 12.8911 44.6445 14.4083 44.3192C15.26 44.1227 16.1626 43.965 17.1041 43.8339C18.0769 43.696 19.0577 43.623 20.0402 43.6156C21.0239 43.6086 22.0054 43.7111 22.9665 43.9213C23.8628 44.1253 24.7267 44.4519 25.5337 44.8919C26.2648 45.2886 26.9282 45.7988 27.4992 46.4036C27.9944 46.9336 28.3956 47.5441 28.6857 48.2089C29.1163 49.1701 29.2781 50.2301 29.154 51.276C29.1154 51.5574 29.0529 51.835 28.9672 52.1058L28.892 52.3145C28.8744 52.3334 28.8558 52.3512 28.8362 52.3679Z" fill="#263238"/>
<path id="Vector_18" d="M27.3659 50.6329C27.3537 50.6329 27.4071 50.5092 27.4629 50.2884C27.5346 49.9696 27.5437 49.64 27.4896 49.3178C27.4153 48.8441 27.2558 48.3879 27.0189 47.9711C26.8839 47.7218 26.7263 47.4855 26.5482 47.265C26.3586 47.0281 26.1447 46.8117 25.91 46.6195C25.4549 46.2466 24.9439 45.9478 24.3959 45.7339C23.9464 45.5608 23.4806 45.434 23.0055 45.3553C22.6841 45.3013 22.3601 45.2641 22.0349 45.2437C21.9147 45.2427 21.7948 45.2338 21.6758 45.217C21.7072 45.2128 21.739 45.2128 21.7704 45.217C21.8311 45.217 21.9209 45.217 22.0373 45.217C22.3623 45.222 22.6865 45.2488 23.0079 45.2971C23.4901 45.3672 23.9635 45.4884 24.4201 45.6586C24.9801 45.8722 25.502 46.1745 25.9658 46.554C26.2038 46.7533 26.4194 46.9778 26.6088 47.2237C26.7922 47.4513 26.9546 47.6949 27.0941 47.9517C27.3331 48.3799 27.4902 48.849 27.5576 49.3348C27.6047 49.6632 27.5832 49.9978 27.4945 50.3175C27.472 50.4012 27.4411 50.4825 27.4023 50.5601C27.3922 50.5854 27.38 50.6097 27.3659 50.6329Z" fill="#F5F5F5"/>
<g id="Group" opacity="0.4">
<path id="Vector_19" d="M22.3818 43.8555C23.7531 44.1078 25.0579 44.6389 26.2157 45.4157C27.3801 46.1896 28.2775 47.3038 28.7853 48.6065C29.2925 49.9144 29.2172 51.6469 28.681 52.7315L30.4814 52.8795C31.088 50.8607 30.428 48.3809 28.9722 46.7988C28.1386 45.877 27.122 45.1392 25.9873 44.6324C24.8525 44.1256 23.6246 43.861 22.3818 43.8555Z" fill="black"/>
</g>
<path id="Vector_20" d="M36.2297 42.5646C36.2297 42.5938 30.5056 42.6156 23.447 42.6156C16.3884 42.6156 10.6643 42.5938 10.6643 42.5646C10.6643 42.5355 16.3884 42.5137 23.447 42.5137C30.5056 42.5137 36.2297 42.5379 36.2297 42.5646Z" fill="#263238"/>
<path id="Vector_21" d="M36.242 41.6648C36.5003 41.3358 36.6601 40.9404 36.7031 40.5243C36.7419 39.8837 36.4604 39.083 35.764 39.083H26.9705C26.6315 39.083 26.2959 39.1498 25.9828 39.2796C25.6697 39.4094 25.3853 39.5996 25.1457 39.8393C24.9062 40.0791 24.7162 40.3637 24.5868 40.677C24.4573 40.9902 24.3908 41.3258 24.3911 41.6648H36.242Z" fill="#455A64"/>
<path id="Vector_22" d="M47.838 32.4342L46.3069 29.2458C46.1025 28.8083 46.0686 28.3102 46.2117 27.849C46.3549 27.3877 46.6648 26.9964 47.081 26.7514L51.6525 24.024C51.8916 23.8811 52.1649 23.8056 52.4435 23.8057H53.4311L53.829 30.2504L52.3028 30.8473L53.2734 32.4148L47.838 32.4342Z" fill="#455A64"/>
<path id="Vector_23" d="M53.4456 24.0381C53.4456 24.0381 55.0106 24.3972 55.2072 26.8091C55.4037 29.221 53.8289 29.9635 53.8289 29.9635L53.4456 24.0381Z" fill="white"/>
<path id="Vector_24" d="M53.4456 24.0385C53.4564 24.0806 53.4621 24.1237 53.4626 24.1671L53.4917 24.5141C53.5184 24.8296 53.55 25.2566 53.5912 25.7807C53.6737 26.8484 53.7829 28.3164 53.8897 29.9688L53.7999 29.9155C53.968 29.8234 54.1224 29.7082 54.2585 29.5733C54.5685 29.2734 54.8045 28.9054 54.9476 28.4984C55.0831 28.1188 55.156 27.7197 55.1636 27.3167C55.1889 26.6296 55.0569 25.9457 54.7778 25.3173C54.5823 24.8973 54.2782 24.5371 53.897 24.2739C53.7542 24.1795 53.6031 24.0983 53.4456 24.0312C53.4905 24.0342 53.5347 24.044 53.5767 24.0604C53.6976 24.1035 53.8139 24.1588 53.9236 24.2254C54.3272 24.4792 54.6509 24.8417 54.8578 25.2712C55.1564 25.909 55.3011 26.6079 55.28 27.3118C55.2757 27.7254 55.2027 28.1354 55.0641 28.5251C54.912 28.951 54.6628 29.3357 54.3361 29.6486C54.192 29.7917 54.0287 29.9142 53.8508 30.0125L53.7659 30.0562V29.9591C53.6592 28.2776 53.5767 26.7805 53.5233 25.7152C53.499 25.1984 53.4772 24.7762 53.4626 24.4632L53.4481 24.1307C53.4448 24.1001 53.444 24.0693 53.4456 24.0385Z" fill="#263238"/>
<path id="Vector_25" d="M47.8137 28.0733C47.8137 28.0733 43.6474 30.0485 43.1378 30.3615C42.786 30.5872 42.4827 30.9803 42.7593 31.6742C43.2325 32.8535 45.1858 31.7446 45.1858 31.7446L49.0682 29.8034C49.0682 29.8034 50.558 29.0973 50.0072 28.2189C49.3812 27.2435 47.8137 28.0733 47.8137 28.0733Z" fill="#263238"/>
<path id="Vector_26" d="M47.2873 25.4869C47.9694 25.4869 48.5224 24.5124 48.5224 23.3103C48.5224 22.1083 47.9694 21.1338 47.2873 21.1338C46.6052 21.1338 46.0522 22.1083 46.0522 23.3103C46.0522 24.5124 46.6052 25.4869 47.2873 25.4869Z" fill="#263238"/>
<path id="Vector_27" d="M47.4888 24.8069L48.1682 27.1582C48.2922 27.096 48.3911 26.9932 48.4485 26.8669C48.5059 26.7407 48.5183 26.5985 48.4836 26.4642C48.3138 25.6586 48.2167 25.086 48.0299 24.3799C48.008 24.3095 47.4888 24.8069 47.4888 24.8069Z" fill="#263238"/>
<g id="Group_2" opacity="0.3">
<path id="Vector_28" d="M34.0606 53.2706C33.9926 53.0765 33.9247 52.8799 33.8592 52.6761C33.7937 52.4723 33.7282 52.2903 33.6772 52.101C33.5978 51.8107 33.541 51.5146 33.5073 51.2154C32.362 55.8766 34.1091 59.1597 37.1131 59.3902C41.4977 59.7275 46.8457 59.9725 49.0028 59.4048C52.9459 58.3711 54.3921 55.0832 54.7366 54.5518C55.0812 54.0204 58.2186 48.2769 56.2968 42.7591C54.3751 37.2413 51.0265 31.3789 51.0241 31.3789L47.8333 32.4441C47.8333 32.4441 48.4181 35.1691 49.3426 38.4303C50.3593 42.0142 51.7229 47.6242 51.6453 50.9024C51.5953 52.8748 50.9583 54.7874 49.8157 56.3959H35.3272C35.3272 56.3959 35.0166 56.0853 34.0606 53.2803" fill="black"/>
</g>
<path id="Vector_29" d="M3.3073 50.7881L3.40922 49.6816L29.8578 52.7293C30.2115 52.7711 30.5528 52.8847 30.861 53.063C31.1692 53.2414 31.4377 53.4808 31.6501 53.7666C31.8625 54.0524 32.0143 54.3785 32.0963 54.725C32.1782 55.0716 32.1885 55.4312 32.1266 55.7818L32.0077 56.4515L4.63459 52.4721C4.23981 52.4147 3.88207 52.2081 3.63513 51.8948C3.38818 51.5815 3.27085 51.1854 3.3073 50.7881Z" fill="#455A64"/>
<g id="Group_3" opacity="0.3">
<path id="Vector_30" d="M3.30706 50.7891L3.40897 49.6826L29.8576 52.7303C30.2112 52.7721 30.5526 52.8857 30.8607 53.064C31.1689 53.2424 31.4374 53.4818 31.6499 53.7676C31.8623 54.0534 32.0141 54.3795 32.096 54.726C32.178 55.0725 32.1883 55.4321 32.1264 55.7828L32.0075 56.4525L4.63434 52.4731C4.23956 52.4157 3.88183 52.2091 3.63488 51.8958C3.38794 51.5825 3.2706 51.1864 3.30706 50.7891Z" fill="black"/>
</g>
<g id="Group_4" opacity="0.3">
<path id="Vector_31" d="M54.7415 58.1871C54.7415 58.1871 60.565 51.7836 61.7661 46.7462C62.3696 46.7432 62.9725 46.7878 63.569 46.8797C63.569 46.8797 60.1234 56.2411 54.7415 58.1871Z" fill="black"/>
</g>
<path id="Vector_32" d="M61.6813 44.4922C61.6972 44.5452 61.7078 44.5997 61.7129 44.6548C61.7274 44.7615 61.759 44.9168 61.7808 45.1231C61.8341 45.702 61.8186 46.2852 61.7347 46.8604C61.6 47.7146 61.3409 48.5443 60.9655 49.3233C60.5049 50.27 59.9904 51.1895 59.4247 52.0774C58.4099 53.7004 57.2701 55.2419 56.0155 56.6877C55.5423 57.2482 55.1517 57.6947 54.8775 58.0004L54.5645 58.3522C54.5292 58.3952 54.4902 58.435 54.448 58.4711C54.4771 58.4245 54.5104 58.3807 54.5475 58.3401L54.8484 57.9761L55.9621 56.6416C57.1964 55.1878 58.3243 53.647 59.3374 52.0313C59.901 51.1454 60.417 50.2302 60.883 49.2893C61.2567 48.5215 61.5198 47.7045 61.6644 46.8629C61.7552 46.2925 61.7804 45.7137 61.7396 45.1376C61.7274 44.9338 61.7007 44.7761 61.6935 44.6693C61.6844 44.6107 61.6803 44.5515 61.6813 44.4922Z" fill="#263238"/>
<path id="Vector_33" d="M51.6135 58.1425C50.9695 57.6061 50.3698 57.0186 49.8203 56.3857C50.1529 56.6411 50.4645 56.9227 50.7521 57.2277C51.0637 57.5086 51.3518 57.8146 51.6135 58.1425Z" fill="#263238"/>
<path id="Vector_34" d="M34.3323 57.9466C34.4251 57.6472 34.5696 57.3663 34.7593 57.1168C34.9226 56.8498 35.1293 56.612 35.3708 56.4131C35.3951 56.4325 35.1282 56.7528 34.8443 57.1726C34.5604 57.5924 34.359 57.9588 34.3323 57.9466Z" fill="#263238"/>
<path id="Vector_35" d="M23.1436 61.6434C23.4617 61.3528 23.7298 61.0117 23.9371 60.634C24.1548 60.2213 24.2877 59.7692 24.3277 59.3043C24.3869 58.7377 24.2881 58.1658 24.0423 57.6518C23.7965 57.1379 23.4132 56.7021 22.9349 56.3925C22.549 56.1302 22.1141 55.9486 21.6562 55.8587C21.2323 55.7813 20.7984 55.7756 20.3726 55.8417C20.3726 55.8417 20.4017 55.8296 20.4599 55.815C20.5395 55.793 20.6206 55.7767 20.7026 55.7665C21.0204 55.7226 21.3431 55.73 21.6586 55.7883C22.1286 55.8714 22.5763 56.0507 22.9737 56.3149C23.4717 56.63 23.8706 57.0794 24.1243 57.6113C24.378 58.1432 24.4763 58.736 24.4078 59.3213C24.3631 59.7968 24.2201 60.2579 23.988 60.6753C23.8346 60.9565 23.6381 61.2119 23.4057 61.4323C23.3256 61.5124 23.2504 61.5609 23.2067 61.5997C23.1874 61.6167 23.1662 61.6314 23.1436 61.6434Z" fill="#263238"/>
<path id="Vector_36" d="M13.4838 59.615C13.4182 59.3088 13.3865 58.9963 13.3892 58.6832C13.3569 58.371 13.3569 58.0563 13.3892 57.7441C13.4549 58.0511 13.4866 58.3644 13.4838 58.6783C13.5174 58.9896 13.5174 59.3037 13.4838 59.615Z" fill="#263238"/>
<path id="Vector_37" d="M14.1852 59.6179C14.0962 59.314 14.0393 59.0018 14.0153 58.6861C13.9596 58.3747 13.9361 58.0584 13.9449 57.7422C14.0356 58.0456 14.0925 58.3581 14.1148 58.674C14.1734 58.985 14.197 59.3016 14.1852 59.6179Z" fill="#263238"/>
<path id="Vector_38" d="M25.0947 41.6642C25.0947 41.6909 21.8796 41.7152 17.9123 41.7152C13.9451 41.7152 10.7275 41.6909 10.7275 41.6642C10.7275 41.6375 13.9451 41.6133 17.9123 41.6133C21.8796 41.6133 25.0947 41.6351 25.0947 41.6642Z" fill="#263238"/>
<path id="Vector_39" d="M8.25479 64.0891C8.22336 64.0641 8.19487 64.0356 8.16986 64.0042C8.11891 63.9459 8.03641 63.861 7.9442 63.7421C7.67218 63.4132 7.42866 63.0617 7.21626 62.6914C6.51442 61.4648 6.14784 60.0749 6.15338 58.6617C6.15892 57.2484 6.53637 55.8615 7.2478 54.6404C7.45989 54.2715 7.70344 53.9216 7.97575 53.5946C8.06795 53.4757 8.15288 53.3932 8.20383 53.3349C8.22998 53.3037 8.25925 53.2753 8.29119 53.25C8.2708 53.2845 8.24725 53.317 8.22082 53.3471C8.17229 53.4102 8.09464 53.4975 8.00729 53.6188C7.74913 53.9523 7.51712 54.3052 7.31332 54.6744C6.62703 55.8911 6.26362 57.2633 6.25767 58.6603C6.25173 60.0572 6.60345 61.4325 7.27935 62.655C7.48141 63.0259 7.71095 63.3812 7.96604 63.7178C8.05097 63.8416 8.12861 63.9265 8.17472 63.992C8.20523 64.021 8.23211 64.0536 8.25479 64.0891Z" fill="#455A64"/>
<path id="Vector_40" d="M35.3733 60.9363C35.3733 60.9363 35.5965 66.1265 35.6014 66.3764L36.703 67.2112L39.3454 66.5536L39.1028 60.8174L35.3733 60.9363Z" fill="#9D6549"/>
<path id="Vector_41" d="M42.6526 15.2686L45.4163 16.7464L50.0388 13.376L51.383 15.6957C51.383 15.6957 48.5683 18.4109 47.5686 19.3354C46.5689 20.2599 45.9137 20.7525 45.1834 20.6093C44.453 20.4662 40.3862 18.2071 40.3862 18.2071C40.3862 18.2071 41.5704 15.3172 42.6526 15.2686Z" fill="#9D6549"/>
<path id="Vector_42" d="M45.4308 17.7754C45.4308 17.7754 45.4478 17.7924 45.4575 17.8215V17.8457H45.3968V17.8239V17.7511C45.38 17.6126 45.3711 17.4733 45.3701 17.3337C45.3473 17.1342 45.3646 16.932 45.4211 16.7393C45.4891 16.9287 45.5148 17.1308 45.4963 17.3313C45.4963 17.4939 45.4963 17.6419 45.4842 17.7511V17.8239V17.8457C45.358 17.8457 45.4478 17.8457 45.4211 17.8457V17.819C45.4138 17.7923 45.4235 17.7754 45.4308 17.7754Z" fill="#EB996E"/>
<path id="Vector_43" d="M50.6138 16.3271C50.706 16.3563 51.5675 15.4269 51.5675 15.4269C51.5675 15.4269 53.1811 15.3978 53.5669 15.1843C53.9527 14.9707 54.5375 14.1749 54.5375 14.1749L53.7586 11.8018C53.0382 11.8489 52.3211 11.938 51.6111 12.0687C51.0967 12.2118 49.8665 13.5003 49.8665 13.5003L49.3375 14.3229C49.3375 14.3229 49.1725 15.8831 50.6138 16.3271Z" fill="#9D6549"/>
<path id="Vector_44" d="M53.3415 15.3183C53.5393 15.3041 53.7361 15.279 53.9311 15.243C54.3194 15.1775 54.7197 15.1436 54.7076 14.7577C54.7087 14.6938 54.696 14.6304 54.6705 14.5718C54.645 14.5132 54.6071 14.4608 54.5596 14.418C54.5596 14.418 54.8459 14.2991 54.8435 14.0832C54.8428 14.0204 54.8273 13.9586 54.7982 13.9029C54.7691 13.8473 54.7273 13.7993 54.6761 13.7629C54.6761 13.7629 55.0716 13.5809 55.0837 13.2606C55.0853 13.1422 55.0539 13.0257 54.993 12.9242C54.9322 12.8226 54.8443 12.74 54.7391 12.6855C54.7391 12.6855 55.9524 12.3385 56.0494 12.2997C56.394 12.159 57.0516 11.846 56.7774 11.5888C56.6779 11.4941 56.6391 11.3898 55.9451 11.4747C55.3142 11.5499 54.3218 11.7829 54.3218 11.7829C54.3218 11.7829 53.4725 11.8241 53.0261 11.8702C52.4727 11.9209 51.9247 12.0191 51.3882 12.1638C50.8155 12.4283 50.3157 13.1805 50.3157 13.1805L51.575 15.4275L53.3415 15.3183Z" fill="#9D6549"/>
<path id="Vector_45" d="M54.4648 14.4085C54.3514 14.3931 54.237 14.3866 54.1227 14.3891H53.7514C53.6779 14.3833 53.6041 14.3833 53.5306 14.3891C53.4466 14.3997 53.3684 14.4372 53.3074 14.4959C53.2741 14.5257 53.2496 14.5641 53.2368 14.6069C53.224 14.6498 53.2232 14.6953 53.2346 14.7385C53.2593 14.8144 53.3123 14.8778 53.3826 14.9156C53.44 14.9511 53.501 14.9804 53.5646 15.003L53.7247 15.0637C53.8266 15.1001 53.9067 15.1243 53.9674 15.1389C54.028 15.1534 54.0572 15.1607 54.0572 15.1559C54.0572 15.151 53.9358 15.1073 53.7417 15.0297C53.6278 14.9867 53.5175 14.9348 53.4117 14.8744C53.3531 14.8414 53.309 14.7878 53.288 14.724C53.28 14.6902 53.2815 14.655 53.2922 14.6221C53.3028 14.5891 53.3224 14.5597 53.3486 14.5371C53.4014 14.4868 53.4683 14.4538 53.5403 14.4425C53.6114 14.4366 53.6828 14.4366 53.7538 14.4425H54.1251C54.2391 14.4402 54.3526 14.4288 54.4648 14.4085Z" fill="#EB996E"/>
<path id="Vector_46" d="M53.1399 12.7504C53.2661 12.6966 53.3776 12.6134 53.465 12.5077C53.5671 12.4168 53.6447 12.3016 53.6907 12.1729C53.6786 12.1729 53.5791 12.3136 53.4262 12.4713C53.2733 12.629 53.1302 12.7382 53.1399 12.7504Z" fill="#EB996E"/>
<path id="Vector_47" d="M52.1159 12.1904C52.4374 12.2678 52.7298 12.4363 52.9579 12.6757C53.1835 12.9145 53.3717 13.1861 53.516 13.4813C53.6373 13.724 53.7417 14.003 53.6082 14.2287C53.5269 14.3391 53.4079 14.416 53.2737 14.4446C53.1396 14.4732 52.9996 14.4516 52.8803 14.384C52.6474 14.2436 52.4642 14.0341 52.3561 13.7846C52.2491 13.536 52.1122 13.3013 51.9485 13.0858" fill="#9D6549"/>
<path id="Vector_48" d="M51.9656 13.0824C51.9656 13.0824 52.0093 13.1382 52.0796 13.2499C52.1685 13.4075 52.2495 13.5694 52.3223 13.7351C52.3771 13.8522 52.4421 13.9642 52.5164 14.07C52.6013 14.1943 52.7123 14.2986 52.8415 14.3757C52.9887 14.4595 53.162 14.4846 53.3268 14.4461C53.4177 14.4257 53.5015 14.3813 53.5695 14.3175C53.635 14.2515 53.6783 14.1667 53.6932 14.0749C53.7103 13.8945 53.674 13.7131 53.5889 13.5532C53.5159 13.4064 53.4349 13.2639 53.3462 13.1261C53.2009 12.8903 53.0172 12.6803 52.8027 12.5049C52.6576 12.3873 52.4935 12.2954 52.3174 12.2332C52.2694 12.2157 52.2198 12.2028 52.1694 12.1943C52.1354 12.1943 52.1184 12.1943 52.1184 12.1943C52.1184 12.1943 52.1888 12.2137 52.3101 12.2598C52.4806 12.3288 52.6394 12.4238 52.7809 12.5413C52.9891 12.7174 53.1669 12.9264 53.3074 13.1601C53.3915 13.2967 53.4685 13.4376 53.5379 13.5823C53.6179 13.7308 53.6525 13.8996 53.6374 14.0676C53.625 14.1496 53.5878 14.2258 53.5307 14.286C53.4715 14.3418 53.3987 14.3812 53.3196 14.4C53.1669 14.4384 53.0053 14.4167 52.8682 14.3393C52.7448 14.266 52.6382 14.1677 52.5552 14.0506C52.4811 13.9476 52.4154 13.8389 52.3587 13.7254C52.279 13.5583 52.189 13.3962 52.0893 13.2401C52.0529 13.1868 52.019 13.1479 51.9971 13.1212C51.9753 13.0946 51.9656 13.08 51.9656 13.0824Z" fill="#EB996E"/>
<path id="Vector_49" d="M54.4286 14.4075C53.931 14.4079 53.4337 14.4338 52.9387 14.4852C52.7973 14.5112 52.6514 14.4986 52.5165 14.4488C52.4122 14.3978 52.3734 14.1358 52.3467 14.0241L54.1714 13.7402" fill="#9D6549"/>
<path id="Vector_50" d="M54.1712 13.7403C54.124 13.7399 54.0769 13.744 54.0305 13.7524L53.6422 13.8058L52.3416 13.9975H52.3149V14.0266C52.3344 14.1091 52.3513 14.2013 52.3805 14.2911C52.3921 14.3286 52.4084 14.3644 52.429 14.3978C52.439 14.4148 52.4512 14.4303 52.4654 14.4439C52.4812 14.4581 52.4992 14.4696 52.5188 14.4779C52.5875 14.5048 52.6609 14.518 52.7347 14.5167C52.8779 14.5167 53.0089 14.4973 53.1351 14.4876C53.3777 14.4658 53.6204 14.4464 53.8048 14.4342C53.9892 14.4221 54.1494 14.4172 54.2586 14.4124C54.3135 14.4165 54.3686 14.4165 54.4235 14.4124C54.369 14.4033 54.3138 14.3992 54.2586 14.4003C54.1494 14.4003 53.9941 14.4003 53.8024 14.4003C53.6107 14.4003 53.3826 14.4221 53.1302 14.4415C53.0041 14.4415 52.8706 14.4682 52.7371 14.4658C52.6698 14.4674 52.6029 14.455 52.5406 14.4294C52.4824 14.41 52.4557 14.342 52.4314 14.2765C52.4071 14.211 52.3877 14.1018 52.3683 14.0169L52.3465 14.0484C52.8609 13.9683 53.3171 13.8931 53.6422 13.8373L54.028 13.7694C54.0765 13.7636 54.1243 13.7538 54.1712 13.7403Z" fill="#EB996E"/>
<path id="Vector_51" d="M54.7025 13.6386L52.8026 14.0026C52.6694 14.0361 52.5316 14.0468 52.3949 14.0341C52.3269 14.0273 52.2617 14.0038 52.2049 13.9657C52.1482 13.9276 52.1018 13.8761 52.0698 13.8158C52.0418 13.7266 52.044 13.6308 52.076 13.5431C52.1081 13.4553 52.1681 13.3806 52.2469 13.3305C52.4094 13.2338 52.5905 13.1726 52.7783 13.1509C53.3558 13.0373 53.9237 12.8791 54.4768 12.6777" fill="#9D6549"/>
<path id="Vector_52" d="M54.4719 12.6709C54.4528 12.6735 54.4341 12.6784 54.4161 12.6855L54.2584 12.7364C54.1225 12.7777 53.926 12.8408 53.6809 12.9063C53.4358 12.9718 53.1398 13.047 52.8098 13.1125C52.6316 13.1358 52.4581 13.1866 52.2954 13.263C52.2081 13.3086 52.135 13.3775 52.0843 13.4619C52.028 13.5497 52.0056 13.6549 52.0212 13.758C52.033 13.8092 52.0556 13.8573 52.0873 13.8991C52.1191 13.9409 52.1594 13.9755 52.2056 14.0006C52.2919 14.0476 52.3888 14.0719 52.4871 14.071C52.6644 14.058 52.8404 14.0312 53.0136 13.9909L53.8944 13.8162L54.4865 13.6949L54.6466 13.6585L54.7025 13.6415C54.6831 13.6388 54.6635 13.6388 54.6442 13.6415L54.4816 13.6682L53.8872 13.7725L53.0039 13.9375C52.8339 13.9765 52.6611 14.0016 52.4871 14.0127C52.3981 14.0141 52.3103 13.9924 52.2323 13.9497C52.1929 13.9284 52.1584 13.8991 52.1312 13.8635C52.104 13.8279 52.0847 13.787 52.0746 13.7434C52.0614 13.6537 52.0812 13.5623 52.1304 13.4862C52.1764 13.4106 52.2417 13.3486 52.3196 13.3066C52.4777 13.2321 52.6463 13.1821 52.8195 13.1586C53.1495 13.0907 53.4455 13.013 53.6906 12.9427C53.9357 12.8723 54.1322 12.8019 54.2657 12.7534L54.4186 12.6927L54.4719 12.6709Z" fill="#EB996E"/>
<path id="Vector_53" d="M50.9026 14.1045C50.9026 14.1045 50.9293 14.1603 51.0021 14.2258C51.0996 14.3072 51.214 14.3661 51.3369 14.3981C51.4596 14.4314 51.5882 14.4363 51.713 14.4127C51.8077 14.3932 51.861 14.3666 51.8586 14.3593C51.6902 14.3861 51.5184 14.382 51.3515 14.3471C51.1875 14.2962 51.035 14.2138 50.9026 14.1045Z" fill="#EB996E"/>
<path id="Vector_54" d="M40.6218 27.5469C40.6218 27.5469 45.2321 28.3986 45.5524 28.4859C45.8727 28.5733 47.1903 29.1945 47.251 29.5924C47.2862 30.1159 47.2862 30.6412 47.251 31.1648C47.251 31.1648 47.0083 31.3564 46.8676 30.9731C46.7702 30.6003 46.7285 30.2152 46.7438 29.8302L46.0159 29.5487L46.4138 30.2573L46.4793 31.917C46.4793 31.917 45.9698 31.8709 45.8703 31.4729C45.8077 31.1974 45.7752 30.9159 45.7732 30.6334L45.2394 30.182L45.6398 30.7231L45.7732 31.917C45.7732 31.917 45.385 32.0431 45.2613 31.7787C45.1726 31.4339 45.1285 31.0791 45.1302 30.7231L43.6258 30.1966L42.631 30.7523L41.5512 30.1602C41.4001 30.0767 41.2693 29.961 41.1678 29.8214C41.0663 29.6818 40.9967 29.5216 40.964 29.3522L40.6218 27.5469Z" fill="#9D6549"/>
<path id="Vector_55" d="M31.4156 4.64069L31.5685 12.6845C31.5805 13.3173 31.8316 13.9221 32.2715 14.3772C32.7113 14.8323 33.3071 15.104 33.9392 15.1376C34.2811 15.1553 34.6231 15.1025 34.9439 14.9828C35.2647 14.863 35.5575 14.6787 35.8042 14.4413C36.051 14.2039 36.2464 13.9184 36.3785 13.6024C36.5105 13.2865 36.5763 12.9468 36.5719 12.6044C36.5719 11.8376 36.5476 11.2116 36.5476 11.2116C36.5476 11.2116 38.5034 11.0102 38.6296 9.07144C38.6999 7.95041 38.6296 5.39775 38.5737 3.44201C38.5525 2.80201 38.291 2.19348 37.8414 1.73754C37.3917 1.2816 36.7869 1.0117 36.1473 0.98156L34.9753 0.920898C34.4956 0.9258 34.0218 1.02656 33.5816 1.21724C33.1414 1.40792 32.7438 1.68469 32.4122 2.03126C32.0805 2.37783 31.8215 2.78721 31.6504 3.23534C31.4792 3.68346 31.3994 4.16128 31.4156 4.64069Z" fill="#9D6549"/>
<path id="Vector_56" d="M36.5477 11.1919C35.6518 11.1422 34.7889 10.8374 34.0605 10.3135C34.0605 10.3135 34.6114 11.7694 36.5574 11.682L36.5477 11.1919Z" fill="#EB996E"/>
<path id="Vector_57" d="M38.1128 5.2644C38.0788 5.30079 37.8701 5.13337 37.5765 5.11881C37.2829 5.10425 37.0524 5.24256 37.0233 5.20374C36.9942 5.16491 37.0451 5.12366 37.1446 5.05814C37.2787 4.97668 37.4344 4.93776 37.5911 4.94653C37.7463 4.95399 37.8952 5.01096 38.0157 5.1091C38.1031 5.18189 38.1322 5.24984 38.1128 5.2644Z" fill="#263238"/>
<path id="Vector_58" d="M35.2422 5.90228C35.2397 5.9748 35.2087 6.04341 35.1561 6.09334C35.1034 6.14327 35.0333 6.17051 34.9607 6.16919C34.9253 6.16984 34.8902 6.1635 34.8573 6.15056C34.8243 6.13762 34.7943 6.11831 34.7688 6.09375C34.7434 6.06919 34.723 6.03985 34.7089 6.00742C34.6947 5.97498 34.6872 5.94008 34.6865 5.90471C34.6891 5.83219 34.72 5.76358 34.7726 5.71365C34.8253 5.66372 34.8954 5.63648 34.968 5.63779C35.0035 5.63683 35.0387 5.64293 35.0718 5.65576C35.1049 5.66859 35.1351 5.68788 35.1606 5.7125C35.1861 5.73713 35.2065 5.76659 35.2205 5.79918C35.2345 5.83176 35.2419 5.86681 35.2422 5.90228Z" fill="#263238"/>
<path id="Vector_59" d="M37.9575 5.90228C37.955 5.9748 37.9241 6.04341 37.8714 6.09334C37.8188 6.14327 37.7486 6.17051 37.676 6.16919C37.6406 6.17016 37.6053 6.16405 37.5722 6.15123C37.5392 6.1384 37.509 6.11911 37.4835 6.09449C37.4579 6.06986 37.4376 6.04039 37.4235 6.00781C37.4095 5.97522 37.4022 5.94018 37.4019 5.90471C37.4044 5.83219 37.4353 5.76358 37.488 5.71365C37.5406 5.66372 37.6108 5.63648 37.6833 5.63779C37.7188 5.63683 37.7541 5.64293 37.7871 5.65576C37.8202 5.66859 37.8504 5.68788 37.8759 5.7125C37.9014 5.73713 37.9218 5.76659 37.9358 5.79918C37.9498 5.83176 37.9572 5.86681 37.9575 5.90228Z" fill="#263238"/>
<path id="Vector_60" d="M35.2326 5.15764C35.1962 5.19161 34.9899 5.02419 34.6963 5.00963C34.4027 4.99507 34.1722 5.13338 34.1407 5.09455C34.1091 5.05573 34.1649 5.01448 34.2644 4.95139C34.3976 4.86761 34.5538 4.82772 34.7109 4.83735C34.8662 4.84481 35.015 4.90178 35.1355 4.99992C35.2229 5.07514 35.2496 5.14066 35.2326 5.15764Z" fill="#263238"/>
<path id="Vector_61" d="M36.174 7.53106C36.3325 7.49012 36.4955 7.46892 36.6593 7.46797C36.7345 7.46797 36.8097 7.45341 36.8243 7.40246C36.8338 7.32427 36.8203 7.24501 36.7855 7.17437L36.5865 6.5823C36.4031 6.08012 36.2603 5.56406 36.1594 5.03906C36.3828 5.52506 36.567 6.02813 36.7102 6.54348C36.7757 6.75216 36.8364 6.9487 36.8971 7.13797C36.9401 7.23243 36.9478 7.33917 36.9189 7.43885C36.9067 7.46548 36.8885 7.48895 36.8658 7.50745C36.8431 7.52596 36.8164 7.53902 36.7879 7.54562C36.7452 7.55132 36.702 7.55132 36.6593 7.54562C36.4975 7.56064 36.3345 7.55575 36.174 7.53106Z" fill="#263238"/>
<path id="Vector_62" d="M35.2835 7.69146C35.3345 7.69146 35.3175 8.01661 35.582 8.25926C35.8465 8.5019 36.1935 8.48492 36.1935 8.53102C36.1935 8.57712 36.1134 8.58926 35.9678 8.58683C35.778 8.57903 35.5969 8.50522 35.4558 8.37815C35.3208 8.2513 35.2392 8.07775 35.2277 7.89286C35.2229 7.76668 35.2617 7.68904 35.2835 7.69146Z" fill="#263238"/>
<path id="Vector_63" d="M35.2687 4.07581C35.2347 4.15345 34.9411 4.10007 34.5869 4.12433C34.2326 4.1486 33.9487 4.22868 33.905 4.15345C33.8856 4.11948 33.939 4.04426 34.0579 3.97147C34.2144 3.88196 34.3898 3.83043 34.5699 3.82102C34.75 3.80866 34.9305 3.83944 35.0964 3.91081C35.2226 3.96904 35.2833 4.03698 35.2687 4.07581Z" fill="#263238"/>
<path id="Vector_64" d="M38.0228 4.18797C37.967 4.25349 37.7656 4.17099 37.5181 4.15643C37.2706 4.14187 37.0595 4.17826 37.0158 4.10304C36.9964 4.06907 37.0328 4.00356 37.1274 3.94289C37.2539 3.87228 37.3986 3.84103 37.543 3.85313C37.6874 3.86523 37.8249 3.92014 37.9379 4.01084C38.0228 4.08363 38.0422 4.15643 38.0228 4.18797Z" fill="#263238"/>
<path id="Vector_65" d="M31.9956 6.12177C31.964 6.10478 30.6828 5.65831 30.6562 6.98559C30.6295 8.31288 31.9762 8.0678 31.9762 8.03869C31.9762 8.00957 31.9956 6.12177 31.9956 6.12177Z" fill="#9D6549"/>
<path id="Vector_66" d="M31.5759 7.51631C31.5759 7.51631 31.554 7.5333 31.5128 7.55028C31.4573 7.57136 31.396 7.57136 31.3405 7.55028C31.2582 7.49251 31.1924 7.41415 31.1499 7.32303C31.1073 7.23192 31.0894 7.13123 31.0979 7.03102C31.0974 6.91724 31.1214 6.8047 31.1682 6.70102C31.1818 6.65953 31.2052 6.62195 31.2364 6.59151C31.2677 6.56108 31.3059 6.5387 31.3478 6.52631C31.3742 6.51997 31.402 6.52304 31.4263 6.535C31.4507 6.54696 31.4701 6.56706 31.4812 6.59182C31.4982 6.63065 31.4812 6.65734 31.4982 6.65977C31.5152 6.66219 31.5273 6.63793 31.5176 6.58212C31.51 6.54914 31.4922 6.5194 31.4667 6.49719C31.4299 6.4694 31.384 6.45642 31.3381 6.46079C31.2841 6.47165 31.2337 6.49574 31.1913 6.53089C31.149 6.56604 31.116 6.61116 31.0954 6.66219C31.0356 6.77577 31.0055 6.90267 31.0081 7.03102C30.9991 7.14928 31.0252 7.26757 31.083 7.37113C31.1408 7.47468 31.2278 7.55893 31.3332 7.61337C31.369 7.62358 31.4066 7.62604 31.4434 7.62061C31.4802 7.61517 31.5154 7.60195 31.5467 7.58183C31.5734 7.55271 31.5807 7.51874 31.5759 7.51631Z" fill="#EB996E"/>
<path id="Vector_67" d="M31.2603 6.03687C31.3867 6.03575 31.5112 6.06873 31.6205 6.13236C31.7298 6.19598 31.82 6.28789 31.8814 6.39842C31.9567 6.59254 31.9664 6.80849 32.0416 7.00261C32.0707 7.10264 32.1323 7.19011 32.2167 7.2512C32.301 7.31228 32.4034 7.34349 32.5075 7.33989C32.5775 7.32193 32.6416 7.28575 32.6931 7.23504C32.7447 7.18433 32.7819 7.12088 32.8011 7.05114C32.8367 6.91173 32.8458 6.76685 32.8278 6.62408C32.7792 6.00047 32.6822 5.3793 32.6895 4.75327C32.6711 4.12385 32.84 3.50316 33.1748 2.9698C33.3451 2.70645 33.5833 2.49395 33.8643 2.35473C34.1453 2.2155 34.4587 2.15471 34.7714 2.17877C35.1815 2.23215 35.5479 2.46752 35.9555 2.54759C36.1961 2.59046 36.4432 2.57846 36.6785 2.5125C36.9138 2.44654 37.1311 2.32831 37.3143 2.16664C37.3629 2.12539 37.5764 1.99921 37.5764 1.99921C37.5783 1.85147 37.537 1.70639 37.4575 1.58185C36.6834 0.788395 35.23 0.502071 34.1429 0.718028C33.5904 0.82337 33.0676 1.04794 32.6108 1.37607C32.154 1.70421 31.7743 2.12802 31.4981 2.61796C30.9836 3.60069 31.0492 5.00804 31.2554 6.03687" fill="#263238"/>
<path id="Vector_68" d="M36.9771 1.78436C36.2492 1.81105 34.8394 2.08282 34.2594 2.53414C34.1915 2.58752 34.1163 2.67488 34.1624 2.7501C34.2085 2.82532 34.2764 2.80833 34.3419 2.80591C35.0152 2.84028 35.6834 2.94188 36.3365 3.10922C36.7521 3.25604 37.1918 3.32273 37.6323 3.30576C37.8523 3.29369 38.0655 3.22475 38.2509 3.10566C38.4363 2.98658 38.5877 2.82143 38.6902 2.62634L38.877 2.69671C38.6645 2.39517 38.3783 2.15303 38.0458 1.99334C37.7132 1.83364 37.3453 1.7617 36.9771 1.78436Z" fill="#263238"/>
<path id="Vector_69" d="M38.4987 2.67798C38.1028 2.30558 37.5955 2.07367 37.0549 2.01798C35.3758 1.86511 32.6193 2.36982 31.1586 5.25491C30.9995 4.75561 30.9001 4.23921 30.8625 3.71652C30.8625 3.321 31.1052 0.969741 33.5317 0.241796C33.5365 0.241796 37.1908 -1.13402 38.4987 2.67798Z" fill="#455A64"/>
<g id="Group_5" opacity="0.3">
<path id="Vector_70" d="M38.4987 2.67798C38.0778 2.22841 37.4979 1.96109 36.8826 1.93305C35.3782 1.86026 32.5344 2.53482 31.1586 5.25491C30.9995 4.75561 30.9001 4.23921 30.8625 3.71652C30.8625 3.321 31.1052 0.969741 33.5317 0.241796C33.5365 0.241796 37.1908 -1.13402 38.4987 2.67798Z" fill="black"/>
</g>
<path id="Vector_71" d="M31.3865 4.84488C32.1145 3.63164 33.2064 2.79451 34.3832 2.06656C35.5601 1.33862 37.4988 0.62766 38.8358 0.278247C39.2317 0.150567 39.6504 0.109197 40.0636 0.156923C40.2695 0.183793 40.4636 0.268166 40.6237 0.40036C40.7838 0.532553 40.9034 0.70721 40.9687 0.904279C41.0949 1.40899 40.1971 2.18061 39.7749 2.48392C39.3841 2.74422 38.9791 2.98239 38.5616 3.1973C38.5616 3.1973 38.5131 2.29465 37.0184 2.09811C34.9826 1.83119 31.3235 4.89584 31.3865 4.84488Z" fill="#455A64"/>
<path id="Vector_72" d="M34.1599 1.12033C34.6031 0.911714 35.0666 0.749098 35.543 0.635037C36.0245 0.560676 36.5121 0.533855 36.9989 0.554962C36.8619 0.505161 36.7175 0.478905 36.5718 0.477313C36.2198 0.449152 35.8655 0.468743 35.5187 0.53555C35.1733 0.603157 34.8386 0.717439 34.5239 0.875256C34.3903 0.937059 34.2674 1.01979 34.1599 1.12033Z" fill="white"/>
<path id="Vector_73" d="M39.3794 66.2305L39.3939 66.4586C39.3939 66.4586 43.519 67.8344 43.6136 68.5647L35.6159 68.8705L35.5674 66.3154C36.1742 66.5653 36.8262 66.6867 37.4823 66.6721C38.1384 66.6575 38.7843 66.5071 39.3794 66.2305Z" fill="#455A64"/>
<g id="Group_6" opacity="0.6">
<path id="Vector_74" d="M35.6159 68.8698L35.6038 68.2559L43.2666 68.1855C43.2666 68.1855 43.6306 68.3214 43.6063 68.5641L35.6159 68.8698Z" fill="white"/>
</g>
<path id="Vector_75" d="M39.4231 66.4774C39.4231 66.5138 39.2314 66.538 39.047 66.6666C38.8626 66.7952 38.7704 66.9554 38.7315 66.9432C38.6927 66.9311 38.7315 66.7006 38.9742 66.5599C39.2168 66.4191 39.4304 66.4434 39.4231 66.4774Z" fill="#263238"/>
<path id="Vector_76" d="M40.2821 66.7778C40.2943 66.8142 40.1293 66.8821 40.0055 67.0471C39.8818 67.2121 39.8551 67.3796 39.8162 67.3796C39.7774 67.3796 39.7386 67.1685 39.8963 66.9671C40.054 66.7657 40.2797 66.7414 40.2821 66.7778Z" fill="#263238"/>
<path id="Vector_77" d="M40.8182 67.7295C40.7818 67.7295 40.7163 67.5523 40.8037 67.3437C40.891 67.135 41.0706 67.0476 41.0876 67.0767C41.1045 67.1059 41.0002 67.2223 40.9298 67.3946C40.8595 67.5669 40.857 67.7295 40.8182 67.7295Z" fill="#263238"/>
<path id="Vector_78" d="M40.0199 48.3689L38.6659 43.8556L36.863 38.1097L36.9625 35.1518L33.944 33.0723C31.9712 33.1063 26.2229 32.7666 26.2229 32.7666C26.2229 32.7666 26.3709 35.7657 26.6669 37.9253C26.727 38.3537 26.8856 38.7624 27.1304 39.1191L29.7777 42.9797L34.3298 51.4723C34.3298 51.4723 34.6331 54.5054 34.7593 57.126C34.9 60.0621 35.3732 65.3761 35.3732 65.3761L40.0563 65.4877L40.3499 53.7241C40.4688 51.9576 40.5998 50.0431 40.0199 48.3689Z" fill="#263238"/>
<path id="Vector_79" d="M42.9197 48.2246C43.4584 48.6614 43.9412 54.599 43.0531 54.1671L44.1087 55.1643L46.9331 54.679L47.3237 48.4406L42.9197 48.2246Z" fill="#9D6549"/>
<path id="Vector_80" d="M34.9365 30.4805C34.9365 30.4805 46.637 33.664 47.8503 36.1827C48.3392 37.0074 48.5675 37.9606 48.5054 38.9173C48.435 40.6159 47.4693 52.8284 47.4693 52.8284L43.0507 52.5372L42.6261 48.0312L42.5533 41.2104L42.8614 40.4339C42.5232 40.512 42.1713 40.5079 41.835 40.4218C41.3327 40.2737 33.7087 37.9662 33.7087 37.9662L30.7314 33.2733L34.9365 30.4805Z" fill="#263238"/>
<path id="Vector_81" d="M47.001 54.337V54.5796C47.001 54.5796 51.1454 56.431 51.1454 57.2293L42.7959 56.8799L43.024 54.1064C43.6315 54.4281 44.3011 54.6152 44.9874 54.655C45.6736 54.6948 46.3604 54.5863 47.001 54.337Z" fill="#455A64"/>
<g id="Group_7" opacity="0.6">
<path id="Vector_82" d="M42.8032 56.8802L42.8566 56.2129L50.8422 56.7928C50.8422 56.7928 51.2061 56.97 51.1527 57.2296L42.8032 56.8802Z" fill="white"/>
</g>
<path id="Vector_83" d="M47.0203 54.611C47.0203 54.6522 46.8116 54.6619 46.6054 54.7833C46.3991 54.9046 46.2851 55.0744 46.2487 55.055C46.2123 55.0356 46.2827 54.8124 46.535 54.6619C46.7874 54.5115 47.0325 54.5721 47.0203 54.611Z" fill="#263238"/>
<path id="Vector_84" d="M47.8817 55.01C47.8817 55.0512 47.7119 55.1119 47.5639 55.2793C47.4158 55.4467 47.3722 55.6263 47.3212 55.6239C47.2702 55.6214 47.2654 55.3812 47.4498 55.1847C47.6342 54.9881 47.8841 54.9711 47.8817 55.01Z" fill="#263238"/>
<path id="Vector_85" d="M48.3355 56.0823C48.2991 56.0823 48.2506 55.8833 48.3647 55.6649C48.4787 55.4465 48.6728 55.364 48.6898 55.398C48.7068 55.432 48.583 55.5484 48.4908 55.728C48.3986 55.9076 48.3768 56.0823 48.3355 56.0823Z" fill="#263238"/>
<path id="Vector_86" d="M44.7298 38.168C44.5897 38.2327 44.4604 38.3186 44.3464 38.4227C44.0572 38.6577 43.7973 38.9265 43.5724 39.2235C43.3472 39.5229 43.1598 39.8489 43.0143 40.1941C42.9443 40.3321 42.8968 40.4803 42.8735 40.6333C43.0959 40.1656 43.3573 39.7176 43.6549 39.2939C43.9804 38.8886 44.34 38.5119 44.7298 38.168Z" fill="#455A64"/>
<path id="Vector_87" d="M43.7811 37.2402C43.672 37.3734 43.5821 37.5213 43.5142 37.6794C43.1443 38.4237 42.9335 39.2369 42.8954 40.0671C42.8802 40.238 42.8875 40.4101 42.9173 40.5791C42.9461 40.4114 42.9632 40.242 42.9682 40.0719C43.0061 39.6627 43.0759 39.2571 43.1769 38.8587C43.2789 38.463 43.4119 38.076 43.5748 37.7013C43.6528 37.5519 43.7216 37.3979 43.7811 37.2402Z" fill="#455A64"/>
<path id="Vector_88" d="M35.9434 35.5088C35.9749 35.5088 36.5039 36.9647 37.1226 38.7603C37.7414 40.5559 38.217 42.0409 38.183 42.053C38.149 42.0651 37.6225 40.6093 37.0037 38.8015C36.385 36.9938 35.9094 35.5209 35.9434 35.5088Z" fill="#455A64"/>
<path id="Vector_89" d="M37.7268 14.0363L39.6364 13.2695L44.618 15.9751L42.5846 20.629L38.2 18.4525L37.7268 14.0363Z" fill="#455A64"/>
<path id="Vector_90" d="M39.6365 13.2701L36.6083 12.1248C36.6083 12.1248 35.9459 13.5249 34.4972 13.0954C33.0486 12.6659 31.452 11.375 31.452 11.375C31.452 11.375 28.698 12.4669 27.8584 12.9643C27.0188 13.4618 26.5651 26.3682 26.5651 26.3682L26.337 31.3619L26.2011 32.3034C26.1432 32.754 26.1132 33.2079 26.1113 33.6622C31.2433 34.8148 36.3171 33.5943 39.0372 32.085C39.0372 32.085 39.3963 31.8035 39.241 31.1605C39.0857 30.5175 38.7557 30.4059 38.7557 30.4059L38.8237 24.7619L39.3284 18.9893L39.6365 13.2701Z" fill="#455A64"/>
<path id="Vector_91" d="M42.347 27.867L35.5334 25.0475L31.3114 15.6982L27.5552 17.2755C27.5552 17.2755 31.588 27.4133 33.1531 28.2553C34.7181 29.0973 41.1726 29.4855 41.1726 29.4855L42.347 27.867Z" fill="#9D6549"/>
<path id="Vector_92" d="M27.8511 12.9633C27.8511 12.9633 26.4317 13.6742 26.4341 16.3919C26.4341 18.7528 27.1305 22.5163 27.1305 22.5163L33.8179 20.1893L31.7505 15.3849C31.2652 14.2396 30.1878 12.1334 27.8511 12.9633Z" fill="#455A64"/>
<path id="Vector_93" d="M27.9021 22.2502C27.9381 22.2314 27.9754 22.2151 28.0137 22.2017L28.3413 22.0755L29.5715 21.629L33.8057 20.1319L33.7693 20.2095C33.5582 19.5738 33.3277 18.8944 33.0754 18.2029C32.6774 17.1134 32.2625 16.0918 31.8378 15.1819C31.6503 14.7487 31.4219 14.3344 31.156 13.9444C30.9313 13.6032 30.6186 13.3291 30.2509 13.1509C29.7077 12.9047 29.11 12.8035 28.516 12.8573C28.356 12.8757 28.1998 12.9182 28.0525 12.9835C28.0046 13.0148 27.9543 13.0423 27.9021 13.066C27.9021 13.066 27.9021 13.0539 27.9361 13.0369C27.968 13.0081 28.003 12.9828 28.0404 12.9617C28.1862 12.8834 28.3448 12.8316 28.5087 12.8088C29.1141 12.7341 29.7285 12.8237 30.2873 13.0684C30.6728 13.2493 31.0023 13.531 31.2409 13.8837C31.5151 14.2763 31.7499 14.6948 31.9422 15.1334C32.3765 16.0433 32.7939 17.0745 33.1943 18.1592C33.4369 18.8531 33.6795 19.5326 33.8834 20.1707L33.9028 20.229L33.847 20.2484L29.5982 21.7043L28.3559 22.1168L28.021 22.2235C27.9827 22.2377 27.9428 22.2467 27.9021 22.2502Z" fill="#263238"/>
<path id="Vector_94" d="M38.4498 30.6045C38.3459 30.7018 38.2348 30.7911 38.1173 30.8714C38.0081 30.9539 37.8747 31.0534 37.7073 31.1553C37.5398 31.2572 37.3578 31.3858 37.1419 31.4999C36.9259 31.6139 36.6906 31.7425 36.4261 31.8687C36.1616 31.9949 35.8801 32.1113 35.5768 32.2302C34.9139 32.4714 34.2321 32.6572 33.5386 32.7859C32.8433 32.9015 32.1396 32.9583 31.4348 32.9558C31.1097 32.9558 30.7991 32.9412 30.5127 32.9048C30.2459 32.8847 29.9802 32.8507 29.7169 32.8029C29.4742 32.7689 29.2582 32.7131 29.0666 32.6719C28.8749 32.6306 28.7147 32.5845 28.5813 32.5432C28.4432 32.5091 28.3084 32.4628 28.1785 32.4049C28.3188 32.4249 28.4574 32.4549 28.5934 32.4947C28.7269 32.5287 28.887 32.5699 29.0787 32.6015C29.2704 32.633 29.4839 32.6864 29.7266 32.7131C29.9692 32.7398 30.2337 32.7859 30.52 32.8005C30.8063 32.815 31.1097 32.832 31.4324 32.8393C32.1301 32.8361 32.8264 32.776 33.5143 32.6597C34.2014 32.5347 34.8774 32.3546 35.5356 32.121C35.834 32.0021 36.1228 31.8978 36.38 31.7741C36.6372 31.6503 36.8798 31.5314 37.1079 31.4222C37.336 31.313 37.5107 31.1941 37.6781 31.0946C37.8225 31.0136 37.9626 30.9254 38.0979 30.8302C38.209 30.7457 38.3267 30.6703 38.4498 30.6045Z" fill="#263238"/>
<path id="Vector_95" d="M38.479 18.7217H36.6082V19.6073H38.479V18.7217Z" fill="white"/>
<path id="Vector_96" d="M39.5394 15.9727C39.5758 15.9727 39.5055 17.3412 39.3866 19.0203C39.2677 20.6994 39.1439 22.0631 39.1075 22.0607C39.0711 22.0583 39.1415 20.6922 39.2604 19.013C39.3793 17.3339 39.4982 15.9702 39.5394 15.9727Z" fill="#263238"/>
<path id="Vector_97" d="M23.4472 22.25H5.77271V26.1105H23.4472V22.25Z" fill="#FFB61D"/>
<path id="Vector_98" d="M24.6384 26.1514H4.59326V41.6105H24.6384V26.1514Z" fill="#FFB61D"/>
<path id="Vector_99" d="M19.6157 41.5039C19.5939 41.5039 19.5745 38.0583 19.5745 33.8071C19.5745 29.556 19.5939 26.1104 19.6157 26.1104C19.6376 26.1104 19.6545 29.556 19.6545 33.8071C19.6545 38.0583 19.6376 41.5039 19.6157 41.5039Z" fill="#263238"/>
<path id="Vector_100" d="M23.9397 38.0947H21.4016V40.6328H23.9397V38.0947Z" fill="#F5F5F5"/>
<path id="Vector_101" opacity="0.3" d="M12.9721 26.1514H10.696V29.4514H12.9721V26.1514Z" fill="white"/>
<path id="Vector_102" opacity="0.3" d="M12.984 38.3135H10.708V41.6135H12.984V38.3135Z" fill="white"/>
<path id="Vector_103" opacity="0.3" d="M24.6385 26.1104H19.6157V41.6544H24.6385V26.1104Z" fill="black"/>
<path id="Vector_104" d="M24.5704 26.152C24.5704 26.1883 20.1057 26.215 14.6 26.215C9.09435 26.215 4.6272 26.1883 4.6272 26.152C4.6272 26.1156 9.09192 26.0889 14.6 26.0889C20.1081 26.0889 24.5704 26.118 24.5704 26.152Z" fill="#263238"/>
<path id="Vector_105" opacity="0.3" d="M23.4471 22.25H18.4995V26.0838H23.4471V22.25Z" fill="black"/>
<path id="Vector_106" d="M18.4608 26.0591C18.3984 25.4392 18.3773 24.8158 18.3977 24.1931C18.3772 23.5704 18.3983 22.947 18.4608 22.3271C18.5247 22.9469 18.5458 23.5704 18.5239 24.1931C18.5457 24.8158 18.5246 25.4393 18.4608 26.0591Z" fill="#263238"/>
<path id="Vector_107" d="M13.45 22.25H10.9629V23.4196H13.45V22.25Z" fill="white"/>
<path id="Vector_108" d="M14.4448 22.3251C14.4416 22.3066 14.4416 22.2878 14.4448 22.2693L14.4642 22.1019C14.4812 21.9587 14.5127 21.7452 14.5709 21.471C14.7274 20.6958 15.0243 19.9557 15.4469 19.2872C15.5918 19.0667 15.7541 18.8582 15.9322 18.6636C16.113 18.4403 16.3294 18.2484 16.5728 18.0958C16.7107 18.0129 16.8711 17.9756 17.0314 17.989C17.1159 18.0034 17.1954 18.0387 17.2628 18.0917C17.3302 18.1446 17.3832 18.2136 17.4172 18.2923C17.523 18.6061 17.5306 18.9447 17.439 19.2629C17.2599 19.9414 16.8903 20.5544 16.3738 21.0294C15.8228 21.5251 15.2171 21.9566 14.5685 22.3154L14.4787 22.3688L14.4423 22.3906L14.4084 22.3664C13.8089 21.9407 13.2412 21.472 12.7098 20.9639C12.2116 20.4875 11.8009 19.9274 11.4966 19.309C11.4192 19.1627 11.3613 19.0069 11.3243 18.8455C11.2848 18.6836 11.2993 18.5132 11.3656 18.3602C11.3984 18.2819 11.4498 18.2126 11.5153 18.1585C11.5808 18.1044 11.6585 18.0671 11.7417 18.0497C11.9027 18.0331 12.0641 18.0763 12.1954 18.171C12.3147 18.2552 12.4238 18.3529 12.5206 18.4622C12.6176 18.5641 12.7074 18.6684 12.7947 18.7703C12.961 18.9681 13.1165 19.1747 13.2606 19.3891C13.7012 20.0336 14.0392 20.7424 14.2628 21.4904C14.3215 21.6931 14.3693 21.8989 14.4059 22.1067L14.4302 22.2693C14.4313 22.2879 14.4313 22.3065 14.4302 22.3251C14.4302 22.3251 14.4302 22.3081 14.4132 22.2717L14.3768 22.1116C14.3453 21.9708 14.2943 21.7646 14.2118 21.505C13.9749 20.7717 13.6324 20.0769 13.1951 19.4425C13.0506 19.2322 12.8951 19.0297 12.7292 18.8358C12.6419 18.7339 12.5521 18.632 12.455 18.5349C12.3627 18.4316 12.2584 18.3396 12.1445 18.2608C12.0358 18.1819 11.902 18.1456 11.7683 18.1588C11.7033 18.1721 11.6425 18.2012 11.5913 18.2435C11.5401 18.2858 11.5 18.3401 11.4747 18.4015C11.351 18.6635 11.4747 18.9814 11.6082 19.2605C11.9094 19.872 12.315 20.4263 12.8069 20.8983C13.333 21.4012 13.895 21.865 14.4884 22.2863H14.4181L14.5078 22.2329C15.1482 21.8783 15.7465 21.4526 16.2913 20.9639C16.7927 20.5086 17.1531 19.9191 17.3298 19.2653C17.4212 18.9705 17.4212 18.655 17.3298 18.3602C17.303 18.2971 17.2607 18.2418 17.2069 18.1994C17.153 18.157 17.0893 18.1289 17.0217 18.1176C16.885 18.1062 16.7482 18.1385 16.631 18.2098C16.3966 18.3562 16.187 18.5388 16.0098 18.7509C15.8328 18.9412 15.6705 19.1449 15.5245 19.36C15.1 20.0149 14.7937 20.7393 14.6195 21.5001C14.5564 21.7694 14.5175 21.9854 14.4909 22.1237L14.4617 22.2863L14.4448 22.3251Z" fill="#263238"/>
<path id="Vector_109" d="M24.6966 32.9869C24.6966 33.0209 20.2028 33.05 14.6631 33.05C9.12348 33.05 4.62964 33.0209 4.62964 32.9869C4.62964 32.9529 9.12105 32.9238 14.6631 32.9238C20.2052 32.9238 24.6966 32.9505 24.6966 32.9869Z" fill="#263238"/>
<path id="Vector_110" d="M14.4837 41.8614C14.4498 41.8614 14.4207 37.4404 14.4207 31.9881C14.4207 26.5358 14.4498 22.1123 14.4837 22.1123C14.5177 22.1123 14.5468 26.5334 14.5468 31.9881C14.5468 37.4428 14.5201 41.8614 14.4837 41.8614Z" fill="#263238"/>
</g>
</svg>
