<svg width="24" height="24" viewBox="0 0 24 24" fill="none" xmlns="http://www.w3.org/2000/svg">
    <g clip-path="url(#clip0_4154_1170)">
        <path d="M9.12609 0.639062C9.39205 0.485272 9.69386 0.404297 10.0011 0.404297C10.3083 0.404297 10.6101 0.485272 10.8761 0.639062L19.1261 5.40106C19.2291 5.46106 19.3251 5.52906 19.4121 5.60706C19.514 5.62941 19.6101 5.67277 19.6943 5.73436C19.7784 5.79595 19.8489 5.87443 19.901 5.96478C19.9531 6.05512 19.9858 6.15535 19.9971 6.25905C20.0083 6.36276 19.9977 6.46766 19.9661 6.56706C19.9891 6.68006 20.0011 6.79706 20.0011 6.91706V10.2491C20.0011 10.448 19.9221 10.6387 19.7814 10.7794C19.6408 10.92 19.45 10.9991 19.2511 10.9991C19.0522 10.9991 18.8614 10.92 18.7208 10.7794C18.5801 10.6387 18.5011 10.448 18.5011 10.2491V7.63906L10.7511 12.1131V22.3591C10.7512 22.4908 10.7166 22.6201 10.6508 22.7342C10.585 22.8483 10.4903 22.9431 10.3763 23.0089C10.2623 23.0748 10.1329 23.1095 10.0012 23.1095C9.86951 23.1096 9.74014 23.0749 9.62609 23.0091L0.876085 17.9571C0.610131 17.8035 0.389266 17.5827 0.235676 17.3168C0.0820867 17.0508 0.0011804 16.7492 0.00108485 16.4421V6.91606C0.00108485 6.79706 0.0130848 6.68006 0.0360848 6.56606C0.00429629 6.46667 -0.00637119 6.36172 0.00476636 6.25796C0.0159039 6.15421 0.0486007 6.05392 0.10076 5.96353C0.15292 5.87315 0.223391 5.79466 0.307656 5.7331C0.391921 5.67154 0.48812 5.62827 0.590085 5.60606C0.678085 5.52806 0.774085 5.46006 0.876085 5.40106L9.12609 0.639062ZM10.0011 10.8121V10.8131L17.7511 6.33906L10.1261 1.93706C10.0881 1.91492 10.045 1.90326 10.0011 1.90326C9.95716 1.90326 9.91402 1.91492 9.87609 1.93706L2.25108 6.33906L10.0011 10.8121ZM1.50108 7.63706V16.4401C1.50108 16.5301 1.54908 16.6121 1.62608 16.6561L9.25109 21.0581V12.1111L1.50108 7.63706Z" fill="#13A89E"/>
        <path d="M21.3471 17.5006L18.4531 14.7986C18.3775 14.7324 18.316 14.6516 18.2722 14.5612C18.2284 14.4707 18.2033 14.3724 18.1982 14.2721C18.1932 14.1717 18.2083 14.0713 18.2428 13.977C18.2773 13.8826 18.3304 13.7961 18.399 13.7226C18.4675 13.6492 18.5502 13.5902 18.642 13.5493C18.7338 13.5084 18.8328 13.4864 18.9333 13.4845C19.0338 13.4826 19.1336 13.501 19.2268 13.5384C19.3201 13.5759 19.4049 13.6317 19.4761 13.7026L23.7621 17.7026C23.8372 17.7727 23.8971 17.8576 23.938 17.9519C23.9789 18.0461 24.0001 18.1478 24.0001 18.2506C24.0001 18.3533 23.9789 18.455 23.938 18.5493C23.8971 18.6436 23.8372 18.7284 23.7621 18.7986L19.4761 22.7986C19.4049 22.8694 19.3201 22.9253 19.2268 22.9627C19.1336 23.0002 19.0338 23.0185 18.9333 23.0166C18.8328 23.0148 18.7338 22.9927 18.642 22.9518C18.5502 22.9109 18.4675 22.852 18.399 22.7785C18.3304 22.7051 18.2773 22.6186 18.2428 22.5242C18.2083 22.4298 18.1932 22.3295 18.1982 22.2291C18.2033 22.1287 18.2284 22.0304 18.2722 21.94C18.316 21.8495 18.3775 21.7688 18.4531 21.7026L21.3471 19.0006H14.7141C14.5152 19.0006 14.3244 18.9216 14.1838 18.7809C14.0431 18.6403 13.9641 18.4495 13.9641 18.2506C13.9641 18.0517 14.0431 17.8609 14.1838 17.7202C14.3244 17.5796 14.5152 17.5006 14.7141 17.5006H21.3471Z" fill="#13A89E"/>
    </g>
    <defs>
        <clipPath id="clip0_4154_1170">
            <rect width="24" height="24" fill="white"/>
        </clipPath>
    </defs>
</svg>
