<svg width="24" height="24" viewBox="0 0 24 24" fill="none" xmlns="http://www.w3.org/2000/svg">
    <circle cx="11" cy="11" r="10.75" fill="white" stroke="#13A89E" stroke-width="0.5"/>
    <path d="M6.33325 15.6661H15.6666M6.33325 15.6661V13.3328L10.9999 8.66608M6.33325 15.6661L8.66659 15.6661L13.3332 10.9994M10.9999 8.66608L12.6733 6.9927L12.6743 6.99171C12.9046 6.76136 13.02 6.64598 13.153 6.60277C13.2702 6.5647 13.3964 6.5647 13.5136 6.60277C13.6465 6.64595 13.7617 6.7612 13.9917 6.99122L15.0066 8.0061C15.2376 8.23711 15.3532 8.35267 15.3965 8.48586C15.4345 8.60302 15.4345 8.72922 15.3964 8.84638C15.3532 8.97948 15.2378 9.09486 15.0071 9.32554L15.0066 9.32604L13.3332 10.9994M10.9999 8.66608L13.3332 10.9994" stroke="#13A89E" stroke-linecap="round" stroke-linejoin="round"/>
</svg>
