<svg width="60" height="60" viewBox="0 0 60 60" fill="none" xmlns="http://www.w3.org/2000/svg">
    <g clip-path="url(#clip0_3900_17075)">
        <path d="M53.9853 10.9873H7.18112C6.54967 10.9877 5.9442 11.2387 5.49771 11.6852C5.05121 12.1317 4.8002 12.7372 4.7998 13.3686V56.3119C4.8002 56.9433 5.05121 57.5488 5.49771 57.9953C5.9442 58.4418 6.54967 58.6928 7.18112 58.6932H53.9853C54.6168 58.6929 55.2223 58.4419 55.6689 57.9954C56.1154 57.5489 56.3665 56.9434 56.3669 56.3119V13.3686C56.3665 12.7371 56.1154 12.1316 55.6689 11.6851C55.2223 11.2386 54.6168 10.9876 53.9853 10.9873Z" fill="#C6C6C6"/>
        <path d="M50.9042 43.7697H10.2628C8.9477 43.7697 7.88147 42.7035 7.88147 41.3884V3.44576C7.88147 2.13068 8.9477 1.06445 10.2628 1.06445H50.9042C52.2193 1.06445 53.2855 2.13068 53.2855 3.44576V41.3884C53.2855 42.7035 52.2193 43.7697 50.9042 43.7697Z" fill="#F9F9F9"/>
        <path d="M8.6354 42.1421V4.1997C8.6354 2.88462 9.70163 1.81839 11.0167 1.81839H51.6581C52.1226 1.81839 52.5544 1.95339 52.9206 2.18331C52.4996 1.51199 51.755 1.06445 50.9042 1.06445H10.2628C8.9477 1.06445 7.88147 2.13068 7.88147 3.44576V41.3884C7.88147 42.2394 8.32901 42.9838 9.00032 43.405C8.7704 43.0386 8.6354 42.6068 8.6354 42.1423V42.1421Z" fill="url(#paint0_linear_3900_17075)"/>
        <path d="M45.9036 9.08203H15.2635V10.8282H45.9036V9.08203ZM45.9036 15.7494H15.2635V17.4956H45.9036V15.7494ZM45.9036 22.4183H15.2635V24.1644H45.9036V22.4183ZM45.9036 29.0856H15.2635V30.832H45.9036V29.0856Z" fill="white"/>
        <path d="M18.9149 23.4492L26.6143 31.1489H18.9149V23.4492Z" fill="url(#paint1_linear_3900_17075)"/>
        <path d="M56.367 31.7844V14.0689L53.2856 10.9873V31.7842H56.367V31.7844Z" fill="#C6C6C6"/>
        <path d="M59.9762 33.3862L56.6563 56.8875C56.4903 58.0624 55.4848 58.9356 54.2984 58.9356H6.86838C5.6819 58.9356 4.67641 58.0624 4.51043 56.8875L0.023951 25.1315C-0.178426 23.6979 0.934033 22.417 2.3819 22.417H17.0293C18.2158 22.417 19.2212 23.2902 19.3872 24.4649L19.9752 28.6235C20.1412 29.7985 21.1467 30.6717 22.3331 30.6717H57.6188C59.0662 30.6717 60.1789 31.9526 59.9765 33.3862H59.9762Z" fill="url(#paint2_linear_3900_17075)"/>
        <path d="M48.2133 48.4531H12.9537C12.7604 48.4531 12.5738 48.3825 12.4288 48.2547C12.2838 48.1269 12.1904 47.9507 12.1661 47.7589L11.7249 44.2662C11.7109 44.1544 11.7208 44.041 11.754 43.9334C11.7871 43.8258 11.8428 43.7264 11.9173 43.642C11.9918 43.5575 12.0834 43.4898 12.186 43.4435C12.2886 43.3971 12.3999 43.3731 12.5125 43.373H48.6544C48.767 43.3731 48.8783 43.3971 48.981 43.4435C49.0836 43.4898 49.1752 43.5575 49.2497 43.642C49.3242 43.7264 49.3798 43.8258 49.413 43.9334C49.4462 44.041 49.4561 44.1544 49.4421 44.2662L49.0009 47.7589C48.9766 47.9507 48.8831 48.1269 48.7381 48.2547C48.5932 48.3825 48.4065 48.4531 48.2133 48.4531Z" fill="#D5D5D5"/>
    </g>
    <defs>
        <linearGradient id="paint0_linear_3900_17075" x1="31.9798" y1="23.8108" x2="1.86426" y2="-6.30498" gradientUnits="userSpaceOnUse">
            <stop stop-color="white"/>
        </linearGradient>
        <linearGradient id="paint1_linear_3900_17075" x1="24.0019" y1="32.3843" x2="14.6952" y2="23.0779" gradientUnits="userSpaceOnUse">
            <stop stop-color="#C2CECE" stop-opacity="0"/>
            <stop offset="0.179" stop-color="#AFBCBC" stop-opacity="0.179"/>
            <stop offset="1" stop-color="#5B6A6A"/>
        </linearGradient>
        <linearGradient id="paint2_linear_3900_17075" x1="30.0001" y1="22.417" x2="30.0001" y2="58.9356" gradientUnits="userSpaceOnUse">
            <stop stop-color="#EEF0F4"/>
            <stop offset="0.927" stop-color="#E4E4E4"/>
        </linearGradient>
        <clipPath id="clip0_3900_17075">
            <rect width="60" height="60" fill="white"/>
        </clipPath>
    </defs>
</svg>
