<svg width="22" height="22" viewBox="0 0 22 22" fill="none" xmlns="http://www.w3.org/2000/svg">
    <g clip-path="url(#clip0_5097_3472)">
        <path d="M8.89957 14.7576C8.73457 14.9158 8.56613 14.7319 8.56613 14.7319C8.56613 14.7319 5.73535 11.8031 5.55316 11.6742C5.29535 11.4903 4.74535 11.205 4.20394 11.7756C3.97879 12.0128 3.61097 12.5387 4.31394 13.3706C4.46519 13.5494 8.87379 18.0869 9.12988 18.3309C9.12988 18.3309 11.1649 20.2645 12.3886 20.9864C12.7289 21.1875 13.1105 21.3989 13.5557 21.545C13.9991 21.6911 14.4993 21.789 15.0252 21.7839C15.5511 21.7839 16.096 21.6756 16.6099 21.4814C17.1238 21.2854 17.6016 21.0019 18.0347 20.677C18.1413 20.5945 18.2478 20.5103 18.3493 20.4226L18.6397 20.1769C18.8425 20.0033 19.0299 19.8228 19.2103 19.6354C19.573 19.2642 19.8996 18.8706 20.1866 18.4667C20.4719 18.0611 20.7143 17.6417 20.905 17.2258C21.0958 16.8098 21.2299 16.3922 21.3072 15.9969C21.3897 15.6033 21.4103 15.232 21.3932 14.9106C21.3863 14.5875 21.3193 14.3108 21.2625 14.0908C21.1989 13.8708 21.1336 13.7058 21.0803 13.5975C21.0288 13.4892 21.0013 13.4308 21.0013 13.4308C20.9291 13.2365 20.8621 13.0509 20.7985 12.8842C20.6266 12.4133 20.4289 11.8839 20.2227 11.3408C20.135 11.1104 20.0955 11.0056 20.0955 11.0056L20.0972 11.009C19.341 9.02732 18.528 6.98373 18.528 6.98373C18.4043 6.62451 17.9643 6.50248 17.6411 6.73966C16.7147 7.42201 16.4397 8.40513 16.7818 9.4467L17.6549 11.7533C17.7769 12.0111 17.4521 12.3136 17.2286 12.1365C16.5274 11.5797 15.0407 10.0379 15.0407 10.0379C14.3772 9.41576 10.6303 5.66373 10.3777 5.43513C9.8741 4.97623 9.2416 4.7442 8.7655 5.10341C8.28082 5.46779 8.15019 6.02638 8.62972 6.62795C8.76035 6.79123 12.5485 10.7014 12.5485 10.7014C12.7702 10.9283 12.5158 11.2531 12.2735 11.0348C12.2735 11.0348 7.56066 6.23263 7.34754 6.00748C6.86457 5.49701 6.098 5.39216 5.64941 5.82185C5.21113 6.24295 5.23004 6.92529 5.71988 7.45466C5.87629 7.6231 9.19519 11.0469 10.5255 12.4494C10.6149 12.5439 10.6836 12.6694 10.5564 12.7914C10.5547 12.7931 10.4258 12.9375 10.2539 12.757C9.893 12.3806 6.28535 8.70935 6.08425 8.50998C5.62363 8.05451 5.01004 7.8431 4.52535 8.29857C4.08191 8.71451 4.01832 9.42951 4.5391 9.92966L8.90988 14.4431C8.91332 14.4448 9.05425 14.6098 8.89957 14.7576Z" fill="#9B643C"/>
        <path d="M7.28242 13.6706C7.19304 13.8803 6.96445 13.7754 6.96445 13.7754C6.96445 13.7754 3.21757 12.1787 2.99929 12.1306C2.68992 12.0619 2.07288 12.0137 1.79617 12.7494C1.68101 13.0553 1.54695 13.6826 2.51804 14.1759C2.72773 14.2825 8.55257 16.7454 8.88429 16.8726C8.88429 16.8726 11.5105 17.8626 12.9199 18.05C13.3118 18.1015 13.7466 18.1497 14.2124 18.1101C14.6782 18.0723 15.1766 17.9692 15.6596 17.7578C16.1443 17.5533 16.6032 17.2404 17.0002 16.8623C17.3973 16.4825 17.7273 16.0356 17.9988 15.5681C18.0659 15.4512 18.1312 15.3326 18.1896 15.2123L18.3632 14.8737C18.4818 14.6348 18.5849 14.3942 18.6794 14.1536C18.8702 13.6706 19.0163 13.1808 19.1246 12.6961C19.2294 12.2114 19.2896 11.7319 19.3034 11.2729C19.3171 10.814 19.2776 10.3775 19.1968 9.98389C19.1212 9.58857 18.994 9.23967 18.853 8.9492C18.7207 8.65357 18.5505 8.4267 18.4148 8.24451C18.2704 8.06748 18.1466 7.94029 18.0555 7.86123C17.9662 7.78217 17.918 7.7392 17.918 7.7392C17.7771 7.58795 17.6413 7.44358 17.5193 7.31467C17.1773 6.94686 16.7888 6.53779 16.3884 6.11842C16.2182 5.93967 16.1409 5.86061 16.1409 5.86061L16.1443 5.86404C14.673 4.33264 13.1296 2.76686 13.1296 2.76686C12.8769 2.48326 12.4232 2.54342 12.2187 2.88717C11.6309 3.87717 11.7598 4.88779 12.4799 5.71451L14.1815 7.50029C14.3946 7.68936 14.2124 8.09498 13.9374 8.01936C13.0746 7.77873 11.1066 6.93654 11.1066 6.93654C10.2524 6.62201 5.34023 4.62311 5.01882 4.50967C4.37601 4.28279 3.70398 4.31545 3.40492 4.83108C3.1007 5.35529 3.19695 5.92076 3.87413 6.28858C4.05804 6.38826 9.0682 8.51607 9.0682 8.51607C9.36038 8.63811 9.2521 9.03686 8.94445 8.93029C8.94445 8.93029 2.7346 6.34014 2.45101 6.21467C1.8082 5.93108 1.06054 6.13389 0.814759 6.70451C0.575853 7.26311 0.859447 7.88529 1.51601 8.18092C1.72398 8.27545 6.11538 10.1386 7.8857 10.912C8.00429 10.9636 8.11601 11.0529 8.04726 11.2162C8.04726 11.2179 7.98367 11.4019 7.75507 11.3022C7.27554 11.0959 2.52492 9.11592 2.26195 9.01107C1.66038 8.77045 1.01413 8.81514 0.742572 9.42186C0.495072 9.97701 0.715072 10.6611 1.38882 10.9189L7.1707 13.3767C7.1707 13.3767 7.36663 13.4747 7.28242 13.6706Z" fill="#9B643C"/>
        <path d="M17.4367 11.069C17.631 11.5193 17.9403 11.8459 17.478 12.181C16.8489 12.6365 15.5616 11.0759 15.046 10.5516C14.4049 9.8968 13.781 9.20415 13.1278 8.5579C12.2392 7.67618 11.0207 6.47993 10.1527 5.57415C9.14721 4.52571 8.14175 5.77696 8.61784 6.74977C8.66253 6.84602 8.72784 6.94055 8.81206 7.04024C9.06987 7.33415 9.34831 7.60743 9.62159 7.88758C9.62503 7.89102 11.7614 9.93633 12.461 10.6427C12.7789 10.9727 12.6071 11.3801 12.4042 11.1962C12.2014 11.0123 10.8299 9.7868 10.2077 9.15258C9.22971 8.15571 7.9819 6.91133 6.86471 5.98149C6.23221 5.45383 4.7455 6.5229 6.148 7.89962C6.20128 7.9529 10.3383 12.0074 10.8625 12.5248C11.0327 12.6915 10.7594 12.8668 10.7594 12.8668C10.646 12.9665 6.18925 8.74008 6.02253 8.57337C5.10987 7.65727 3.53893 8.78993 4.82456 10.1013C5.29378 10.5791 6.7805 12.1071 7.74643 13.1057C8.06612 13.4374 8.85159 14.149 9.32253 14.5598C9.4205 14.6457 9.17987 14.7471 9.12143 14.8262C9.0355 14.9448 5.8369 12.0487 5.5069 11.784C4.773 11.1962 3.50112 12.2309 4.24706 13.226C4.63034 13.7365 7.2944 16.2562 7.6794 16.6223C9.67831 18.5215 10.0616 18.9924 12.4936 20.7129C12.803 20.9329 13.6847 21.6135 13.4252 21.5035C10.01 20.0391 7.00393 16.6498 4.40518 14.2813C3.6455 13.5887 3.06112 12.2996 3.96003 11.4402C4.31409 11.1034 4.55643 11.0312 5.01534 11.0587C5.01534 11.0587 4.98784 11.026 4.58737 10.5998C4.20065 10.189 3.31034 8.95149 4.13706 8.15227C4.78675 7.52321 5.51378 7.79821 5.45878 7.73633C4.84175 6.99899 4.91737 6.18258 5.44331 5.6893C6.07581 5.09462 6.93518 5.06883 8.05065 6.2204C7.9819 6.01415 7.82206 5.5054 8.35487 5.02243C9.38612 4.08399 10.2592 4.75774 12.2238 6.8718C13.8566 8.62321 16.3883 11.2065 16.3883 11.2065C16.5327 11.3354 16.9091 11.7874 17.1446 11.6448C17.2821 11.5606 17.0655 11.3079 16.8386 10.7888C16.0239 8.93087 16.0067 7.31696 17.8269 6.6518C17.9438 6.54352 17.136 7.25165 16.8919 8.04915C16.6564 8.81571 16.9899 10.0291 17.4367 11.069Z" fill="#7A4C32"/>
        <path d="M19.3703 3.67113L17.2476 5.37613M17.4075 0.536133L16.3057 3.99254L17.4075 0.536133ZM7.30293 3.90145L5.46387 1.71348L7.30293 3.90145ZM9.07324 0.536133L8.6659 3.72613L9.07324 0.536133Z" stroke="#444444" stroke-miterlimit="10" stroke-linecap="round"/>
    </g>
    <defs>
        <clipPath id="clip0_5097_3472">
            <rect width="22" height="22" fill="white"/>
        </clipPath>
    </defs>
</svg>
