<svg width="19" height="19" viewBox="0 0 19 19" fill="none" xmlns="http://www.w3.org/2000/svg">
<g id="&#240;&#159;&#166;&#134; emoji &#34;waving hand sign tone 3&#34;">
<path id="Vector" d="M4.46555 14.4126C4.3072 14.3809 4.18051 14.3493 4.02216 14.2859C3.86381 14.2226 3.73713 14.1909 3.61044 14.1276C3.32541 14.0009 3.07204 13.8425 2.81868 13.6525C2.31195 13.3041 1.90023 12.8291 1.58353 12.259C1.26682 11.7206 1.0768 11.0872 1.04513 10.4855C1.01346 10.1688 1.04513 9.88373 1.0768 9.56702C1.10847 9.40867 1.14014 9.28198 1.17181 9.12363C1.20348 8.96528 1.26682 8.8386 1.29849 8.68024L1.33016 9.12363C1.33016 9.28198 1.36183 9.40867 1.3935 9.56702C1.42518 9.85205 1.48852 10.1371 1.55186 10.3905C1.67854 10.9289 1.86856 11.4356 2.1536 11.9106C2.43863 12.3857 2.75534 12.8291 3.16706 13.2408C3.35708 13.4308 3.57877 13.6209 3.80047 13.8109C3.89548 13.9059 4.02216 14.0009 4.14884 14.0959L4.46555 14.4126ZM4.37054 15.5528C4.27553 15.6161 4.14884 15.6478 4.02216 15.6794C3.89548 15.7111 3.80047 15.7428 3.67379 15.7428C3.45209 15.7745 3.19873 15.8061 2.94536 15.7745C2.4703 15.7428 1.96357 15.6161 1.55186 15.3944C1.10847 15.1727 0.728423 14.8243 0.475058 14.4126C0.348376 14.2226 0.221694 14.0009 0.126682 13.7792C0.0950117 13.6842 0.0633411 13.5575 0.0316705 13.4308C0.0316705 13.3358 0 13.2408 0 13.1141C0.0950117 13.2091 0.158353 13.2725 0.221694 13.3675C0.316706 13.4625 0.380047 13.5575 0.443388 13.6209C0.601741 13.7792 0.728423 13.9376 0.886776 14.0642C1.20348 14.3493 1.52019 14.6026 1.90023 14.7927C2.24861 14.9827 2.66033 15.141 3.04037 15.2677C3.2304 15.3311 3.45209 15.3627 3.67379 15.4261C3.7688 15.4577 3.89548 15.4577 3.99049 15.4894C4.14884 15.5211 4.24386 15.5211 4.37054 15.5528ZM11.5281 0.160862C11.6864 0.192533 11.8131 0.255874 11.9715 0.319215C12.1298 0.382556 12.2565 0.445897 12.3832 0.509238C12.6682 0.667591 12.9216 0.825944 13.175 1.01597C13.6817 1.39601 14.0934 1.90274 14.3784 2.47281C14.6635 3.04288 14.8218 3.67629 14.8218 4.27804C14.8218 4.59474 14.7902 4.87978 14.7268 5.19648C14.6951 5.35483 14.6635 5.48152 14.6001 5.63987C14.5368 5.79822 14.5051 5.9249 14.4418 6.05159L14.4101 5.6082C14.4101 5.44985 14.4101 5.32316 14.3784 5.16481L14.2834 4.30971C14.1884 3.77131 13.9984 3.23291 13.745 2.72618C13.4917 2.21945 13.175 1.77606 12.7949 1.36434C12.6049 1.14265 12.3832 0.952626 12.1932 0.730932C12.0982 0.635921 11.9715 0.540909 11.8448 0.445897L11.5281 0.160862ZM14.2834 0.0341797C14.4101 0.0658503 14.5051 0.0975208 14.6001 0.160862C14.6951 0.192533 14.8218 0.255874 14.9168 0.319215C15.1069 0.445897 15.2969 0.572579 15.4869 0.730932C15.8353 1.04764 16.1203 1.42768 16.2787 1.87107C16.4687 2.31446 16.532 2.78952 16.4687 3.26458C16.437 3.48627 16.3737 3.70796 16.3103 3.92966C16.2787 4.02467 16.2153 4.15135 16.1837 4.24636C16.1203 4.34138 16.0886 4.43639 15.9936 4.5314V4.21469V3.89799C15.9936 3.67629 15.962 3.48627 15.962 3.29625C15.8986 2.88453 15.8353 2.50448 15.6769 2.15611C15.5186 1.77606 15.3286 1.45936 15.1069 1.11098C14.9802 0.952626 14.8535 0.762603 14.7268 0.60425C14.6635 0.509238 14.6001 0.445897 14.5051 0.350885C14.4418 0.192533 14.3468 0.0975208 14.2834 0.0341797Z" fill="#42ADE2"/>
<path id="Vector_2" d="M2.53383 4.75397C1.90042 5.039 1.67872 5.7991 1.96376 6.43251L5.95425 14.7619L8.17119 13.7167L4.1807 5.35571C3.89566 4.7223 3.16724 4.43726 2.53383 4.75397ZM13.0168 11.3731L15.3604 10.233L10.7998 0.731806C10.4831 0.0983948 9.72305 -0.18664 9.05796 0.130065C8.42455 0.446771 8.13952 1.20686 8.45622 1.87195L13.0168 11.3731Z" fill="#D6A57C"/>
<path id="Vector_3" d="M9.08919 0.129382C9.02585 0.161052 8.96251 0.192723 8.89917 0.256064C9.50091 0.0977109 10.1343 0.382746 10.4194 0.952816L14.9799 10.454L15.3916 10.264L10.8311 0.762793C10.5144 0.097711 9.75428 -0.187324 9.08919 0.129382Z" fill="#B58360"/>
<path id="Vector_4" d="M8.17118 13.6849L10.6098 12.5131L5.95424 2.82193C5.63754 2.15685 4.81411 1.84014 4.14902 2.15685C3.48394 2.47355 3.19891 3.29699 3.51561 3.96207L8.17118 13.6849Z" fill="#D6A57C"/>
<path id="Vector_5" d="M4.14876 2.18828C4.08542 2.21995 4.02208 2.25163 3.95874 2.31497C4.56048 2.15661 5.25723 2.44165 5.54227 3.04339L8.42429 9.09247L9.12104 9.50418L5.95399 2.85337C5.63728 2.15661 4.84552 1.87158 4.14876 2.18828Z" fill="#B58360"/>
<path id="Vector_6" d="M10.2298 11.7529L12.6684 10.581L8.01284 0.889854C7.69613 0.224773 6.8727 -0.0919331 6.20762 0.256443C5.54254 0.573149 5.2575 1.39658 5.57421 2.06166L10.2298 11.7529Z" fill="#D6A57C"/>
<path id="Vector_7" d="M6.20756 0.225394C6.14422 0.257064 6.08088 0.320405 6.01754 0.352076C6.61928 0.193723 7.31603 0.478758 7.60106 1.0805L10.8631 7.92134L11.5599 8.33306L8.01278 0.890476C7.69608 0.193723 6.87264 -0.0913118 6.20756 0.225394ZM2.53377 4.75428C2.47043 4.78595 2.40709 4.81763 2.34375 4.88097C2.91382 4.72261 3.51556 5.00765 3.76893 5.57772L6.14422 10.55L6.84097 10.9617L4.18064 5.3877C3.89561 4.72261 3.16718 4.43758 2.53377 4.75428Z" fill="#B58360"/>
<path id="Vector_8" d="M18.6224 3.80334C17.7673 3.13826 16.3738 3.86668 15.677 6.14696C15.202 7.73049 15.1386 8.20555 14.1252 8.68061L13.5551 7.5088C13.5551 7.5088 4.56066 11.8477 4.90903 12.5444C4.90903 12.5444 5.98583 15.9015 7.82273 17.4534C10.5464 19.7653 16.9122 17.295 17.1972 11.2459C17.3556 7.73049 19.5408 4.53177 18.6224 3.80334Z" fill="#D6A57C"/>
<g id="Group">
<path id="Vector_9" d="M18.6223 3.8047C18.4639 3.67802 18.2739 3.61468 18.0839 3.58301C18.1156 3.61468 18.1789 3.61468 18.2106 3.64635C19.1607 4.37477 18.1789 6.05331 17.6405 7.5735C17.1971 8.77698 16.8171 10.0121 16.8804 11.2156C17.1338 16.4729 11.8448 18.9749 8.67773 18.0248C11.7814 19.3233 17.5455 16.853 17.2921 11.374C17.2288 10.1705 17.5772 8.99867 18.0522 7.73185C18.5589 6.21166 19.5407 4.53312 18.6223 3.8047Z" fill="#B58360"/>
<path id="Vector_10" d="M14.41 8.55469C12.4464 8.77638 9.56442 11.5951 11.5913 14.6671C10.1028 11.5634 12.5415 9.47313 14.0933 8.74471C14.2517 8.61803 14.41 8.55469 14.41 8.55469Z" fill="#B58360"/>
</g>
</g>
</svg>
