<svg width="16" height="18" viewBox="0 0 16 18" fill="none" xmlns="http://www.w3.org/2000/svg">
    <path d="M14.6667 8.33366C14.6667 11.231 10.5384 14.9351 8.77912 16.3822C8.32256 16.7577 7.67746 16.7577 7.2209 16.3822C5.46157 14.9351 1.33334 11.231 1.33334 8.33366C1.33334 4.65176 4.31811 1.66699 8.00001 1.66699C11.6819 1.66699 14.6667 4.65176 14.6667 8.33366Z" stroke="#13A89E" stroke-width="1.5"/>
    <path d="M10 8.33366C10 9.43823 9.10458 10.3337 8.00001 10.3337C6.89544 10.3337 6.00001 9.43823 6.00001 8.33366C6.00001 7.22909 6.89544 6.33366 8.00001 6.33366C9.10458 6.33366 10 7.22909 10 8.33366Z" stroke="#13A89E" stroke-width="1.5"/>
</svg>
