<svg width="22" height="22" viewBox="0 0 22 22" fill="none" xmlns="http://www.w3.org/2000/svg">
    <path d="M11.2783 13.5898L13.9033 10.9648M13.9033 10.9648L11.2783 8.33984M13.9033 10.9648H4.27832M8.65332 6.80736V6.76501C8.65332 5.78492 8.65332 5.29451 8.84406 4.92017C9.01184 4.59088 9.27936 4.32336 9.60864 4.15558C9.98299 3.96484 10.4734 3.96484 11.4535 3.96484H15.4785C16.4586 3.96484 16.9479 3.96484 17.3223 4.15558C17.6516 4.32336 17.92 4.59088 18.0878 4.92017C18.2783 5.29415 18.2783 5.78396 18.2783 6.76214V15.168C18.2783 16.1461 18.2783 16.6353 18.0878 17.0092C17.92 17.3385 17.6516 17.6065 17.3223 17.7743C16.9483 17.9648 16.4592 17.9648 15.481 17.9648H11.4506C10.4724 17.9648 9.98262 17.9648 9.60864 17.7743C9.27936 17.6065 9.01184 17.3383 8.84406 17.009C8.65332 16.6346 8.65332 16.1449 8.65332 15.1648V15.1211" stroke="#13A89E" stroke-width="1.3" stroke-linecap="round" stroke-linejoin="round"/>
</svg>
