<svg width="22" height="21" viewBox="0 0 22 21" fill="none" xmlns="http://www.w3.org/2000/svg">
    <path fill-rule="evenodd" clip-rule="evenodd" d="M6.435 0.197266H15.565C16.135 0.197266 16.619 0.197266 17.018 0.236557C17.444 0.278724 17.838 0.370724 18.21 0.591141C18.581 0.811557 18.843 1.10768 19.073 1.45364C19.288 1.77947 19.505 2.19347 19.76 2.68222L19.776 2.71385C19.786 2.73302 19.795 2.75122 19.803 2.77135L21.206 6.17056C21.374 6.57593 21.559 7.08097 21.613 7.59656C21.668 8.12556 21.593 8.73027 21.16 9.25447C20.8013 9.69113 20.3078 10.0081 19.75 10.1601V19.3639H21C21.1989 19.3639 21.3897 19.4397 21.5303 19.5744C21.671 19.7092 21.75 19.8921 21.75 20.0827C21.75 20.2733 21.671 20.4561 21.5303 20.5909C21.3897 20.7257 21.1989 20.8014 21 20.8014H1C0.801088 20.8014 0.610322 20.7257 0.46967 20.5909C0.329018 20.4561 0.25 20.2733 0.25 20.0827C0.25 19.8921 0.329018 19.7092 0.46967 19.5744C0.610322 19.4397 0.801088 19.3639 1 19.3639H2.25V10.1601C1.69236 10.0083 1.19893 9.69169 0.84 9.25543C0.408 8.73027 0.332 8.1246 0.387 7.59752C0.441 7.08002 0.627 6.57593 0.793 6.17056L2.197 2.77039C2.20511 2.75085 2.21412 2.73167 2.224 2.71289L2.24 2.68222C2.495 2.19347 2.711 1.77852 2.927 1.45364C3.157 1.10768 3.419 0.811557 3.79 0.591141C4.162 0.370724 4.556 0.278724 4.981 0.236557C5.381 0.197266 5.865 0.197266 6.435 0.197266ZM17 9.43272C17.3404 9.77921 17.7724 10.0309 18.25 10.1611V19.3639H14.25V16.6978C14.25 16.2762 14.25 15.912 14.222 15.6149C14.192 15.2987 14.126 14.9863 13.949 14.6921C13.7514 14.3641 13.4672 14.0917 13.125 13.9024C12.818 13.7328 12.492 13.6695 12.163 13.6408C11.851 13.6139 11.472 13.6139 11.033 13.6139H10.968C10.528 13.6139 10.148 13.6139 9.838 13.6408C9.508 13.6695 9.182 13.7328 8.875 13.9024C8.53274 14.0917 8.24854 14.3641 8.051 14.6921C7.874 14.9863 7.808 15.2987 7.778 15.614C7.75 15.913 7.75 16.2762 7.75 16.6969V19.3639H3.75V10.1601C4.22753 10.0302 4.65947 9.77886 5 9.43272C5.25673 9.6942 5.56665 9.90249 5.91063 10.0447C6.25461 10.187 6.62536 10.2602 7 10.2598C7.788 10.2598 8.499 9.94256 9 9.43272C9.25673 9.6942 9.56664 9.90249 9.91063 10.0447C10.2546 10.187 10.6254 10.2602 11 10.2598C11.3747 10.2603 11.7454 10.1871 12.0894 10.0449C12.4334 9.90264 12.7433 9.69429 13 9.43272C13.2567 9.6942 13.5666 9.90249 13.9106 10.0447C14.2546 10.187 14.6254 10.2602 15 10.2598C15.3747 10.2603 15.7454 10.1871 16.0894 10.0449C16.4334 9.90264 16.7433 9.69429 17 9.43272ZM9.25 19.3639H12.75V16.7285C12.75 16.2676 12.75 15.9695 12.728 15.7443C12.708 15.5287 12.673 15.4501 12.649 15.4108C12.5832 15.3018 12.4888 15.2112 12.375 15.1482C12.335 15.1252 12.252 15.0926 12.027 15.0725C11.6851 15.0523 11.3425 15.0453 11 15.0514C10.519 15.0514 10.208 15.0514 9.973 15.0725C9.748 15.0917 9.666 15.1252 9.625 15.1482C9.51124 15.2112 9.41675 15.3018 9.351 15.4108C9.327 15.4491 9.292 15.5287 9.272 15.7443C9.251 15.9695 9.25 16.2676 9.25 16.7285V19.3639ZM5.75 7.62435C5.75 7.94206 5.8817 8.24675 6.11612 8.4714C6.35054 8.69606 6.66848 8.82227 7 8.82227C7.33152 8.82227 7.64946 8.69606 7.88388 8.4714C8.1183 8.24675 8.25 7.94206 8.25 7.62435C8.25 7.43372 8.32902 7.25091 8.46967 7.11612C8.61032 6.98132 8.80109 6.9056 9 6.9056C9.19891 6.9056 9.38968 6.98132 9.53033 7.11612C9.67098 7.25091 9.75 7.43372 9.75 7.62435C9.75 7.94206 9.8817 8.24675 10.1161 8.4714C10.3505 8.69606 10.6685 8.82227 11 8.82227C11.3315 8.82227 11.6495 8.69606 11.8839 8.4714C12.1183 8.24675 12.25 7.94206 12.25 7.62435C12.25 7.43372 12.329 7.25091 12.4697 7.11612C12.6103 6.98132 12.8011 6.9056 13 6.9056C13.1989 6.9056 13.3897 6.98132 13.5303 7.11612C13.671 7.25091 13.75 7.43372 13.75 7.62435C13.75 7.94206 13.8817 8.24675 14.1161 8.4714C14.3505 8.69606 14.6685 8.82227 15 8.82227C15.3315 8.82227 15.6495 8.69606 15.8839 8.4714C16.1183 8.24675 16.25 7.94206 16.25 7.62435C16.25 7.43372 16.329 7.25091 16.4697 7.11612C16.6103 6.98132 16.8011 6.9056 17 6.9056C17.1989 6.9056 17.3897 6.98132 17.5303 7.11612C17.671 7.25091 17.75 7.43372 17.75 7.62435C17.7501 7.87332 17.8311 8.11608 17.9818 8.31887C18.1325 8.52167 18.3454 8.67443 18.5909 8.7559C18.8364 8.83738 19.1023 8.84353 19.3516 8.7735C19.6009 8.70347 19.8213 8.56073 19.982 8.36514C20.096 8.22714 20.152 8.03739 20.12 7.74031C20.088 7.43172 19.969 7.08097 19.812 6.69956L18.42 3.32814C18.152 2.81543 17.973 2.47522 17.807 2.22606C17.647 1.98456 17.533 1.8801 17.421 1.81397C17.31 1.74689 17.161 1.6961 16.864 1.66639C16.55 1.63572 16.144 1.63477 15.528 1.63477H6.472C5.855 1.63477 5.449 1.63477 5.136 1.66639C4.839 1.6961 4.69 1.74785 4.579 1.81397C4.467 1.8801 4.353 1.98456 4.193 2.22606C4.026 2.47522 3.848 2.81543 3.58 3.32814L2.188 6.69956C2.031 7.08097 1.912 7.43172 1.88 7.74031C1.849 8.03739 1.904 8.22714 2.018 8.36514C2.17874 8.56073 2.39909 8.70347 2.64839 8.7735C2.8977 8.84353 3.16358 8.83738 3.40907 8.7559C3.65456 8.67443 3.86746 8.52167 4.01817 8.31887C4.16888 8.11608 4.24991 7.87332 4.25 7.62435C4.25 7.43372 4.32902 7.25091 4.46967 7.11612C4.61032 6.98132 4.80109 6.9056 5 6.9056C5.19891 6.9056 5.38968 6.98132 5.53033 7.11612C5.67098 7.25091 5.75 7.43372 5.75 7.62435Z" fill="#13A89E"/>
</svg>
