<svg width="24" height="24" viewBox="0 0 24 24" fill="none" xmlns="http://www.w3.org/2000/svg">
<g id="Communication / Bell_Notification">
<path id="Vector" d="M15.5789 17.7895V18.8421C15.5789 20.5862 14.1651 22 12.4211 22C10.677 22 9.26316 20.5862 9.26316 18.8421V17.7896M15.5789 17.7895L9.26316 17.7896M15.5789 17.7895H19.7895C20.3708 17.7895 20.8421 17.3182 20.8421 16.7368V16.1201C20.8421 15.8409 20.7311 15.5733 20.5337 15.3758L19.9961 14.8382C19.8638 14.7059 19.7895 14.5263 19.7895 14.3391V10.4211C19.7895 10.2353 19.7828 10.0511 19.7689 9.86957M9.26316 17.7896L5.05263 17.7896C4.47128 17.7896 4 17.318 4 16.7366V16.1201C4 15.8409 4.11099 15.5736 4.30839 15.3761L4.84601 14.8377C4.97831 14.7054 5.05263 14.5265 5.05263 14.3394V10.421C5.05263 6.35159 8.35158 3.05263 12.4211 3.05263C13.1701 3.05263 13.8931 3.1644 14.5741 3.37218M19.7689 9.86957C21.0388 9.14453 21.8947 7.77749 21.8947 6.21053C21.8947 3.88512 20.0096 2 17.6842 2C16.4524 2 15.3441 2.52898 14.5741 3.37218M19.7689 9.86957C19.1543 10.2205 18.4427 10.4211 17.6842 10.4211C15.3588 10.4211 13.4737 8.53594 13.4737 6.21053C13.4737 5.11695 13.8906 4.12074 14.5741 3.37218M19.7689 9.86957C19.7689 9.86957 19.7689 9.86958 19.7689 9.86957ZM14.5741 3.37218C14.5746 3.37233 14.5751 3.37248 14.5756 3.37263" stroke="#C4C4C4" stroke-width="1.57895" stroke-linecap="round" stroke-linejoin="round"/>
</g>
</svg>
