<svg width="9" height="9" viewBox="0 0 9 9" fill="none" xmlns="http://www.w3.org/2000/svg">
    <path d="M8.49272 3.70017C8.62363 3.70017 8.68908 3.76562 8.68908 3.89653V4.72126C8.68908 4.85217 8.62363 4.91762 8.49272 4.91762H5.23308C5.18072 4.91762 5.15454 4.94381 5.15454 4.99617V8.17726C5.15454 8.30817 5.08908 8.37362 4.95817 8.37362H4.13345C4.00254 8.37362 3.93708 8.30817 3.93708 8.17726V4.99617C3.93708 4.94381 3.9109 4.91762 3.85854 4.91762H0.598901C0.467992 4.91762 0.402537 4.85217 0.402537 4.72126V3.89653C0.402537 3.76562 0.467992 3.70017 0.598901 3.70017H3.85854C3.9109 3.70017 3.93708 3.67399 3.93708 3.62162V0.283441C3.93708 0.152532 4.00254 0.087078 4.13345 0.087078H4.95817C5.08908 0.087078 5.15454 0.152532 5.15454 0.283441V3.62162C5.15454 3.67399 5.18072 3.70017 5.23308 3.70017H8.49272Z" fill="black"/>
</svg>
