<svg width="32" height="32" viewBox="0 0 32 32" fill="none" xmlns="http://www.w3.org/2000/svg">
<g id="Navigation / Building_03">
<path id="Vector" d="M2.66675 26.6663H5.33341M5.33341 26.6663H20.0001M5.33341 26.6663V19.1572C5.33341 18.4567 5.33341 18.1063 5.41741 17.7796C5.49186 17.4901 5.61439 17.2155 5.78003 16.9666C5.96682 16.6859 6.22826 16.4509 6.74878 15.9833L9.81755 13.2263C10.8239 12.3222 11.3274 11.8699 11.8967 11.6982C12.3987 11.5469 12.9344 11.5469 13.4363 11.6982C14.0061 11.87 14.5103 12.3226 15.5183 13.2282L18.585 15.9833C19.1061 16.4514 19.3661 16.6858 19.553 16.9666C19.7186 17.2155 19.841 17.4901 19.9154 17.7796C19.9994 18.1063 20.0001 18.4567 20.0001 19.1572V26.6663M20.0001 26.6663H26.6667M26.6667 26.6663H29.3334M26.6667 26.6663V9.59555C26.6667 8.105 26.6667 7.35861 26.3764 6.78874C26.1207 6.28697 25.7117 5.87932 25.2099 5.62366C24.6395 5.33301 23.8938 5.33301 22.4003 5.33301H13.6003C12.1069 5.33301 11.3596 5.33301 10.7891 5.62366C10.2874 5.87932 9.87973 6.28697 9.62406 6.78874C9.33341 7.35917 9.33341 8.10646 9.33341 9.59993V13.3333" stroke="#13A89E" stroke-width="1.5" stroke-linecap="round" stroke-linejoin="round"/>
</g>
</svg>
