<svg width="32" height="32" viewBox="0 0 32 32" fill="none" xmlns="http://www.w3.org/2000/svg">
    <g clip-path="url(#clip0_3980_3819)">
        <path d="M26.9801 7.58113C27.5561 5.98779 26.0121 4.44379 24.4188 5.02113L4.94547 12.0638C3.3468 12.6425 3.15347 14.8238 4.62414 15.6758L10.8401 19.2745L16.3908 13.7238C16.6423 13.4809 16.9791 13.3465 17.3287 13.3496C17.6783 13.3526 18.0127 13.4928 18.2599 13.74C18.5071 13.9872 18.6473 14.3217 18.6504 14.6713C18.6534 15.0209 18.519 15.3577 18.2761 15.6091L12.7255 21.1598L16.3255 27.3758C17.1761 28.8465 19.3575 28.6518 19.9361 27.0545L26.9801 7.58113Z" fill="white"/>
    </g>
    <defs>
        <clipPath id="clip0_3980_3819">
            <rect width="32" height="32" fill="white"/>
        </clipPath>
    </defs>
</svg>

