<svg width="24" height="24" viewBox="0 0 24 24" fill="none" xmlns="http://www.w3.org/2000/svg">
    <path d="M19.6873 7.00964L18.3748 3.07214C18.3291 2.93631 18.2402 2.81916 18.1217 2.73858C18.0032 2.658 17.8616 2.61842 17.7185 2.62589H3.28102C3.13791 2.61842 2.99629 2.658 2.87779 2.73858C2.7593 2.81916 2.67043 2.93631 2.62477 3.07214L1.31227 7.00964C1.30281 7.07932 1.30281 7.14996 1.31227 7.21964V11.1571C1.31227 11.3312 1.38141 11.4981 1.50448 11.6212C1.62755 11.7443 1.79447 11.8134 1.96852 11.8134H2.62477V18.3759H3.93727V11.8134H7.87477V18.3759H18.3748V11.8134H19.031C19.2051 11.8134 19.372 11.7443 19.4951 11.6212C19.6181 11.4981 19.6873 11.3312 19.6873 11.1571V7.21964C19.6967 7.14996 19.6967 7.07932 19.6873 7.00964ZM17.0623 17.0634H9.18727V11.8134H17.0623V17.0634ZM18.3748 10.5009H15.7498V7.87589H14.4373V10.5009H11.156V7.87589H9.84352V10.5009H6.56227V7.87589H5.24977V10.5009H2.62477V7.32464L3.75352 3.93839H17.246L18.3748 7.32464V10.5009Z" fill="#656565"/>
</svg>
