<svg width="24" height="24" viewBox="0 0 22 22" fill="none" xmlns="http://www.w3.org/2000/svg">
    <path d="M10.2939 18.3398H4.05957C3.8791 18.3398 3.73145 18.1922 3.73145 18.0117V11.7773C3.73145 11.5969 3.8791 11.4492 4.05957 11.4492H10.2939C10.4744 11.4492 10.6221 11.5969 10.6221 11.7773V18.0117C10.6221 18.1922 10.4744 18.3398 10.2939 18.3398ZM9.22754 12.8438H5.12598V16.9453H9.22754V12.8438ZM18.4971 18.3398H12.2627C12.0822 18.3398 11.9346 18.1922 11.9346 18.0117V11.7773C11.9346 11.5969 12.0822 11.4492 12.2627 11.4492H18.4971C18.6775 11.4492 18.8252 11.5969 18.8252 11.7773V18.0117C18.8252 18.1922 18.6775 18.3398 18.4971 18.3398ZM17.4307 12.8438H13.3291V16.9453H17.4307V12.8438ZM10.2939 10.1367H4.05957C3.8791 10.1367 3.73145 9.98906 3.73145 9.80859V3.57422C3.73145 3.39375 3.8791 3.24609 4.05957 3.24609H10.2939C10.4744 3.24609 10.6221 3.39375 10.6221 3.57422V9.80859C10.6221 9.98906 10.4744 10.1367 10.2939 10.1367ZM9.22754 4.64062H5.12598V8.74219H9.22754V4.64062ZM18.4971 10.1367H12.2627C12.0822 10.1367 11.9346 9.98906 11.9346 9.80859V3.57422C11.9346 3.39375 12.0822 3.24609 12.2627 3.24609H18.4971C18.6775 3.24609 18.8252 3.39375 18.8252 3.57422V9.80859C18.8252 9.98906 18.6775 10.1367 18.4971 10.1367ZM17.4307 4.64062H13.3291V8.74219H17.4307V4.64062Z" fill="#13A89E"/>
</svg>
