<svg width="33" height="32" viewBox="0 0 33 32" fill="none" xmlns="http://www.w3.org/2000/svg">
<g id="solar:shop-2-outline">
<path id="Vector" fill-rule="evenodd" clip-rule="evenodd" d="M10.2231 1.66699H22.7769C23.5606 1.66699 24.2261 1.66699 24.7747 1.72166C25.3605 1.78033 25.9022 1.90833 26.4137 2.21499C26.9239 2.52166 27.2841 2.93366 27.6004 3.41499C27.896 3.86833 28.1944 4.44433 28.545 5.12433L28.567 5.16833C28.5807 5.19499 28.5931 5.22033 28.6041 5.24833L30.5332 9.97766C30.7642 10.5417 31.0186 11.2443 31.0929 11.9617C31.1685 12.6977 31.0654 13.539 30.47 14.2683C29.9767 14.8759 29.2982 15.3168 28.5312 15.5283V28.3337H30.25C30.5235 28.3337 30.7858 28.439 30.9792 28.6265C31.1726 28.8141 31.2812 29.0684 31.2812 29.3337C31.2812 29.5989 31.1726 29.8532 30.9792 30.0408C30.7858 30.2283 30.5235 30.3337 30.25 30.3337H2.75C2.4765 30.3337 2.21419 30.2283 2.0208 30.0408C1.8274 29.8532 1.71875 29.5989 1.71875 29.3337C1.71875 29.0684 1.8274 28.8141 2.0208 28.6265C2.21419 28.439 2.4765 28.3337 2.75 28.3337H4.46875V15.5283C3.70199 15.3171 3.02353 14.8766 2.53 14.2697C1.936 13.539 1.8315 12.6963 1.90712 11.963C1.98137 11.243 2.23712 10.5417 2.46537 9.97766L4.39587 5.24699C4.40703 5.21981 4.41942 5.19312 4.433 5.16699L4.455 5.12433C4.80562 4.44433 5.10263 3.86699 5.39963 3.41499C5.71588 2.93366 6.07613 2.52166 6.58625 2.21499C7.09775 1.90833 7.6395 1.78033 8.22388 1.72166C8.77387 1.66699 9.43937 1.66699 10.2231 1.66699ZM24.75 14.5163C25.2181 14.9984 25.812 15.3486 26.4688 15.5297V28.3337H20.9688V24.6243C20.9688 24.0377 20.9688 23.531 20.9303 23.1177C20.889 22.6777 20.7983 22.243 20.5549 21.8337C20.2832 21.3773 19.8924 20.9984 19.4219 20.735C18.9998 20.499 18.5515 20.411 18.0991 20.371C17.6701 20.3337 17.149 20.3337 16.5454 20.3337H16.456C15.851 20.3337 15.3285 20.3337 14.9023 20.371C14.4485 20.411 14.0002 20.499 13.5781 20.735C13.1075 20.9984 12.7167 21.3773 12.4451 21.8337C12.2017 22.243 12.111 22.6777 12.0697 23.1163C12.0312 23.5323 12.0312 24.0377 12.0312 24.623V28.3337H6.53125V15.5283C7.18786 15.3476 7.78177 14.9979 8.25 14.5163C8.603 14.8801 9.02914 15.1699 9.50211 15.3678C9.97509 15.5657 10.4849 15.6675 11 15.667C12.0835 15.667 13.0611 15.2257 13.75 14.5163C14.103 14.8801 14.5291 15.1699 15.0021 15.3678C15.4751 15.5657 15.9849 15.6675 16.5 15.667C17.0152 15.6677 17.525 15.566 17.998 15.368C18.471 15.1701 18.8971 14.8802 19.25 14.5163C19.603 14.8801 20.0291 15.1699 20.5021 15.3678C20.9751 15.5657 21.4849 15.6675 22 15.667C22.5152 15.6677 23.025 15.566 23.498 15.368C23.971 15.1701 24.3971 14.8802 24.75 14.5163ZM14.0938 28.3337H18.9062V24.667C18.9062 24.0257 18.9062 23.611 18.876 23.2977C18.8485 22.9977 18.8004 22.8883 18.7674 22.8337C18.677 22.682 18.547 22.556 18.3906 22.4683C18.3356 22.4363 18.2215 22.391 17.9121 22.363C17.442 22.3349 16.9709 22.3251 16.5 22.3337C15.8386 22.3337 15.411 22.3337 15.0879 22.363C14.7785 22.3897 14.6657 22.4363 14.6094 22.4683C14.453 22.556 14.323 22.682 14.2326 22.8337C14.1996 22.887 14.1515 22.9977 14.124 23.2977C14.0951 23.611 14.0938 24.0257 14.0938 24.667V28.3337ZM9.28125 12.0003C9.28125 12.4424 9.46233 12.8663 9.78466 13.1788C10.107 13.4914 10.5442 13.667 11 13.667C11.4558 13.667 11.893 13.4914 12.2153 13.1788C12.5377 12.8663 12.7188 12.4424 12.7188 12.0003C12.7188 11.7351 12.8274 11.4808 13.0208 11.2932C13.2142 11.1057 13.4765 11.0003 13.75 11.0003C14.0235 11.0003 14.2858 11.1057 14.4792 11.2932C14.6726 11.4808 14.7812 11.7351 14.7812 12.0003C14.7812 12.4424 14.9623 12.8663 15.2847 13.1788C15.607 13.4914 16.0442 13.667 16.5 13.667C16.9558 13.667 17.393 13.4914 17.7153 13.1788C18.0377 12.8663 18.2188 12.4424 18.2188 12.0003C18.2188 11.7351 18.3274 11.4808 18.5208 11.2932C18.7142 11.1057 18.9765 11.0003 19.25 11.0003C19.5235 11.0003 19.7858 11.1057 19.9792 11.2932C20.1726 11.4808 20.2812 11.7351 20.2812 12.0003C20.2812 12.4424 20.4623 12.8663 20.7847 13.1788C21.107 13.4914 21.5442 13.667 22 13.667C22.4558 13.667 22.893 13.4914 23.2153 13.1788C23.5377 12.8663 23.7188 12.4424 23.7188 12.0003C23.7188 11.7351 23.8274 11.4808 24.0208 11.2932C24.2142 11.1057 24.4765 11.0003 24.75 11.0003C25.0235 11.0003 25.2858 11.1057 25.4792 11.2932C25.6726 11.4808 25.7812 11.7351 25.7812 12.0003C25.7814 12.3467 25.8928 12.6845 26.1 12.9666C26.3072 13.2488 26.6 13.4613 26.9375 13.5747C27.2751 13.688 27.6407 13.6966 27.9835 13.5991C28.3263 13.5017 28.6292 13.3031 28.8503 13.031C29.007 12.839 29.084 12.575 29.04 12.1617C28.996 11.7323 28.8324 11.2443 28.6165 10.7137L26.7025 6.02299C26.334 5.30966 26.0879 4.83633 25.8596 4.48966C25.6396 4.15366 25.4829 4.00833 25.3289 3.91633C25.1762 3.82299 24.9714 3.75233 24.563 3.71099C24.1313 3.66833 23.573 3.66699 22.726 3.66699H10.274C9.42563 3.66699 8.86738 3.66699 8.437 3.71099C8.02863 3.75233 7.82375 3.82433 7.67112 3.91633C7.51713 4.00833 7.36037 4.15366 7.14037 4.48966C6.91075 4.83633 6.666 5.30966 6.2975 6.02299L4.3835 10.7137C4.16762 11.2443 4.004 11.7323 3.96 12.1617C3.91738 12.575 3.993 12.839 4.14975 13.031C4.37077 13.3031 4.67374 13.5017 5.01654 13.5991C5.35934 13.6966 5.72492 13.688 6.06247 13.5747C6.40002 13.4613 6.69276 13.2488 6.89998 12.9666C7.10721 12.6845 7.21863 12.3467 7.21875 12.0003C7.21875 11.7351 7.3274 11.4808 7.5208 11.2932C7.71419 11.1057 7.9765 11.0003 8.25 11.0003C8.5235 11.0003 8.78581 11.1057 8.9792 11.2932C9.1726 11.4808 9.28125 11.7351 9.28125 12.0003Z" fill="#13A89E"/>
</g>
</svg>
