<svg width="32" height="32" viewBox="0 0 32 32" fill="none" xmlns="http://www.w3.org/2000/svg">
<g id="solar:wallet-linear">
<g id="Group">
<path id="Vector" d="M8 10.666H13.3333" stroke="#13A89E" stroke-width="1.5" stroke-linecap="round" stroke-linejoin="round"/>
<path id="Vector_2" d="M27.7773 12H24.308C21.928 12 20 13.7907 20 16C20 18.2093 21.9293 20 24.3067 20H27.7773C27.8893 20 27.944 20 27.9907 19.9973C28.7107 19.9533 29.284 19.4213 29.3307 18.7533C29.3333 18.7107 29.3333 18.6587 29.3333 18.556V13.444C29.3333 13.3413 29.3333 13.2893 29.3307 13.2467C29.2827 12.5787 28.7107 12.0467 27.9907 12.0027C27.9453 12 27.8893 12 27.7773 12Z" stroke="#13A89E" stroke-width="1.5"/>
<path id="Vector_3" d="M27.9534 11.9997C27.8494 9.50367 27.5161 7.97301 26.4374 6.89567C24.8761 5.33301 22.3614 5.33301 17.3334 5.33301H13.3334C8.30542 5.33301 5.79075 5.33301 4.22941 6.89567C2.66675 8.45701 2.66675 10.9717 2.66675 15.9997C2.66675 21.0277 2.66675 23.5423 4.22941 25.1037C5.79075 26.6663 8.30542 26.6663 13.3334 26.6663H17.3334C22.3614 26.6663 24.8761 26.6663 26.4374 25.1037C27.5161 24.0263 27.8507 22.4957 27.9534 19.9997" stroke="#13A89E" stroke-width="1.5"/>
<path id="Vector_4" d="M23.988 16H24.001" stroke="#13A89E" stroke-width="1.5" stroke-linecap="round" stroke-linejoin="round"/>
</g>
</g>
</svg>
