<svg width="24" height="24" viewBox="0 0 22 22" fill="none" xmlns="http://www.w3.org/2000/svg">
    <path d="M8.78149 7.95699C8.93094 7.49649 9.2047 7.08667 9.57275 6.77213C9.94081 6.45758 10.3891 6.25089 10.8673 6.17502C11.3455 6.09916 11.835 6.15693 12.2823 6.3421C12.7297 6.52728 13.1171 6.83273 13.4017 7.22437C13.6864 7.616 13.8568 8.07857 13.8949 8.56122C13.9329 9.04387 13.8367 9.52777 13.6169 9.95917C13.3972 10.3906 13.0628 10.7525 12.65 11.0055C12.2372 11.2585 11.7625 11.3924 11.2783 11.3924V12.2678M11.2783 18.3926C6.92908 18.3926 3.40332 14.8668 3.40332 10.5176C3.40332 6.16834 6.92908 2.64258 11.2783 2.64258C15.6276 2.64258 19.1533 6.16834 19.1533 10.5176C19.1533 14.8668 15.6276 18.3926 11.2783 18.3926ZM11.3219 14.8926V14.9801L11.2347 14.9802V14.8926H11.3219Z" stroke="#13A89E" stroke-width="1.33" stroke-linecap="round" stroke-linejoin="round"/>
</svg>
